<svg width="104" height="32" viewBox="0 0 104 32" fill="none" xmlns="http://www.w3.org/2000/svg">
<g clip-path="url(#clip0_251_220)">
<path fill-rule="evenodd" clip-rule="evenodd" d="M63.9159 24.6457C58.0212 29.0042 49.447 31.3264 42.0518 31.3264C31.6914 31.3264 22.4027 27.5037 15.329 21.1445C14.7931 20.6444 15.2576 19.9656 15.9364 20.3586C23.5459 24.7886 32.9418 27.4323 42.6592 27.4323C49.197 27.4323 56.4135 26.0747 63.0585 23.2524C64.0588 22.8594 64.8805 23.9311 63.9159 24.6457Z" fill="#C2C2C2"/>
<path fill-rule="evenodd" clip-rule="evenodd" d="M66.381 21.8233C65.6308 20.8587 61.3794 21.3589 59.486 21.6089C58.9144 21.6804 58.8072 21.1802 59.3431 20.823C62.737 18.4294 68.2745 19.1439 68.9175 19.9298C69.5606 20.7158 68.7389 26.289 65.5593 28.9327C65.0592 29.3257 64.5947 29.1113 64.8091 28.5754C65.5236 26.7892 67.1313 22.8236 66.381 21.8233Z" fill="#C2C2C2"/>
<path fill-rule="evenodd" clip-rule="evenodd" d="M59.5931 4.03204V1.70987C59.5931 1.35261 59.8432 1.13826 60.1647 1.13826H70.5252C70.8467 1.13826 71.1325 1.38834 71.1325 1.70987V3.67478C71.1325 3.99631 70.8467 4.42502 70.3466 5.13954L64.9877 12.7848C66.9884 12.7491 69.0962 13.0349 70.8825 14.0352C71.2754 14.2496 71.3826 14.6068 71.4183 14.9284V17.3934C71.4183 17.7507 71.0611 18.1437 70.6681 17.9293C67.4885 16.2502 63.2372 16.0716 59.736 17.9651C59.3788 18.1437 58.9858 17.7864 58.9858 17.4292V15.0713C58.9858 14.714 58.9858 14.071 59.3788 13.4993L65.5951 4.60365H60.2005C59.8789 4.60365 59.5931 4.35357 59.5931 4.03204V4.03204ZM21.8311 18.4295H18.6872C18.4014 18.3938 18.1514 18.1794 18.1156 17.8936V1.7456C18.1156 1.42407 18.4014 1.17399 18.723 1.17399H21.6525C21.974 1.17399 22.1884 1.42407 22.2241 1.70987V3.81768H22.2955C23.0458 1.78132 24.5105 0.816729 26.4397 0.816729C28.4046 0.816729 29.655 1.78132 30.5124 3.81768C31.2627 1.78132 33.0132 0.816729 34.871 0.816729C36.1928 0.816729 37.6219 1.35261 38.515 2.60301C39.5153 3.96059 39.301 5.92551 39.301 7.67606V17.8936C39.301 18.2151 39.0152 18.4652 38.6936 18.4652H35.5855C35.264 18.4295 35.0139 18.1794 35.0139 17.8936V9.31944C35.0139 8.64065 35.0853 6.92582 34.9424 6.28275C34.6923 5.21098 34.0136 4.88945 33.0847 4.88945C32.3344 4.88945 31.5128 5.38962 31.1912 6.21131C30.8697 7.033 30.9054 8.39057 30.9054 9.31944V17.8936C30.9054 18.2151 30.6196 18.4652 30.2981 18.4652H27.1542C26.8327 18.4295 26.5826 18.1794 26.5826 17.8936V9.31944C26.5826 7.53315 26.8684 4.85373 24.6534 4.85373C22.4027 4.85373 22.4742 7.42598 22.4742 9.31944V17.8936C22.4384 18.1794 22.1884 18.4295 21.8311 18.4295V18.4295ZM80.064 0.816729C84.744 0.816729 87.2805 4.818 87.2805 9.92678C87.2805 14.8569 84.4939 18.7867 80.064 18.7867C75.4911 18.7867 72.9903 14.7855 72.9903 9.78388C72.9545 4.74656 75.4911 0.816729 80.064 0.816729ZM80.064 4.13921C77.7418 4.13921 77.5989 7.31881 77.5989 9.28372C77.5989 11.2486 77.5632 15.4643 80.0282 15.4643C82.4576 15.4643 82.6005 12.0703 82.6005 9.99823C82.6005 8.64066 82.529 6.99728 82.136 5.71115C81.7788 4.56793 81.0643 4.13921 80.064 4.13921ZM93.3182 18.4295H90.1743C89.8528 18.3938 89.6027 18.1437 89.6027 17.8579V1.67414C89.6384 1.38834 89.8885 1.13826 90.21 1.13826H93.1396C93.4254 1.13826 93.6397 1.35262 93.7112 1.6027V4.06777H93.7826C94.6758 1.85278 95.8904 0.816729 98.0697 0.816729C99.463 0.816729 100.856 1.31688 101.749 2.71019C102.571 3.99631 102.571 6.17558 102.571 7.74751V17.9293C102.535 18.2151 102.285 18.4295 101.964 18.4295H98.8199C98.5341 18.3938 98.284 18.1794 98.2483 17.9293V9.14081C98.2483 7.35452 98.4627 4.78228 96.2834 4.78228C95.5332 4.78228 94.8187 5.28244 94.4614 6.06841C94.0327 7.06873 93.9612 8.03331 93.9612 9.14081V17.8579C93.9255 18.1794 93.6397 18.4295 93.3182 18.4295V18.4295ZM51.3405 10.7127C51.3405 11.9274 51.3762 12.9635 50.7689 14.071C50.2687 14.9641 49.4828 15.5 48.5896 15.5C47.375 15.5 46.6604 14.5711 46.6604 13.2135C46.6604 10.5341 49.0541 10.0339 51.3405 10.0339V10.7127ZM54.5201 18.3938C54.3057 18.5724 54.0199 18.6081 53.7699 18.4652C52.7338 17.6078 52.5195 17.1791 51.9478 16.3574C50.233 18.108 48.9826 18.6438 46.7676 18.6438C44.1239 18.6438 42.0518 17.0005 42.0518 13.7494C42.0518 11.1772 43.4451 9.46234 45.41 8.60492C47.1249 7.85468 49.5185 7.71179 51.3405 7.49744V7.10445C51.3405 6.35421 51.412 5.46107 50.9475 4.81801C50.5545 4.2464 49.84 3.99631 49.197 3.99631C47.9823 3.99631 46.9105 4.60366 46.6604 5.88978C46.589 6.17559 46.4104 6.46138 46.1246 6.46138L43.0879 6.13985C42.8378 6.0684 42.552 5.88978 42.6234 5.49679C43.338 1.78132 46.6604 0.673828 49.6614 0.673828C51.1976 0.673828 53.1982 1.06681 54.4129 2.24576C55.9491 3.67478 55.8062 5.60397 55.8062 7.67606V12.5705C55.8062 14.0352 56.4136 14.6783 56.9852 15.5C57.1995 15.7858 57.2352 16.143 56.9852 16.3217C56.3064 16.8576 55.1632 17.8579 54.5201 18.3938V18.3938ZM10.0773 10.7127C10.0773 11.9274 10.1131 12.9635 9.50574 14.071C9.00558 14.9641 8.21961 15.5 7.32647 15.5C6.11179 15.5 5.39728 14.5711 5.39728 13.2135C5.39728 10.5341 7.79091 10.0339 10.0773 10.0339V10.7127ZM13.2212 18.3938C13.0069 18.5724 12.721 18.6081 12.471 18.4652C11.4349 17.6078 11.2206 17.1791 10.649 16.3574C8.93412 18.108 7.68373 18.6438 5.46873 18.6438C2.82503 18.6438 0.752945 17.0005 0.752945 13.7494C0.752945 11.1772 2.14624 9.46234 4.11116 8.60492C5.82599 7.85468 8.21961 7.71179 10.0416 7.49744V7.10445C10.0416 6.35421 10.1131 5.46107 9.64864 4.81801C9.25565 4.2464 8.54114 3.99631 7.89808 3.99631C6.68341 3.99631 5.61164 4.60366 5.36156 5.88978C5.2901 6.17559 5.11148 6.46138 4.82567 6.46138L1.78899 6.13985C1.53891 6.0684 1.25311 5.88978 1.32456 5.49679C2.03907 1.78132 5.36156 0.673828 8.36252 0.673828C9.89872 0.673828 11.8994 1.06681 13.114 2.24576C14.6502 3.67478 14.5073 5.60397 14.5073 7.67606V12.5705C14.5073 14.0352 15.1147 14.6783 15.6863 15.5C15.9006 15.7858 15.9364 16.143 15.6863 16.3217C15.0075 16.8576 13.8643 17.8579 13.2212 18.3938V18.3938Z" fill="#C2C2C2"/>
</g>
<defs>
<clipPath id="clip0_251_220">
<rect width="102.545" height="32" fill="white" transform="translate(0.603088)"/>
</clipPath>
</defs>
</svg>
