<?xml version="1.0" encoding="UTF-8"?>
<svg xmlns="http://www.w3.org/2000/svg" xmlns:xlink="http://www.w3.org/1999/xlink" width="150px" height="px" viewBox="0 0 150 150" version="1.1">
<g id="surface1">
<path style=" stroke:none;fill-rule:evenodd;fill:rgb(25.098039%,23.921569%,23.921569%);fill-opacity:1;" d="M 92.1875 87.46875 C 83.683594 93.757812 71.316406 97.105469 60.652344 97.105469 C 45.707031 97.105469 32.3125 91.59375 22.109375 82.421875 C 21.335938 81.699219 22.007812 80.71875 22.984375 81.285156 C 33.960938 87.675781 47.511719 91.488281 61.527344 91.488281 C 70.957031 91.488281 81.367188 89.53125 90.949219 85.460938 C 92.390625 84.894531 93.578125 86.4375 92.1875 87.46875 Z M 92.1875 87.46875 "/>
<path style=" stroke:none;fill-rule:evenodd;fill:rgb(25.098039%,23.921569%,23.921569%);fill-opacity:1;" d="M 95.742188 83.398438 C 94.660156 82.007812 88.527344 82.730469 85.796875 83.089844 C 84.972656 83.191406 84.816406 82.472656 85.589844 81.957031 C 90.484375 78.503906 98.472656 79.535156 99.398438 80.667969 C 100.328125 81.800781 99.144531 89.839844 94.558594 93.652344 C 93.835938 94.21875 93.164062 93.910156 93.476562 93.136719 C 94.503906 90.5625 96.824219 84.839844 95.742188 83.398438 Z M 85.953125 57.738281 L 85.953125 54.390625 C 85.953125 53.875 86.3125 53.566406 86.777344 53.566406 L 101.71875 53.566406 C 102.183594 53.566406 102.59375 53.925781 102.59375 54.390625 L 102.59375 57.222656 C 102.59375 57.6875 102.183594 58.304688 101.460938 59.335938 L 93.730469 70.363281 C 96.617188 70.3125 99.65625 70.722656 102.234375 72.167969 C 102.800781 72.476562 102.957031 72.992188 103.007812 73.453125 L 103.007812 77.007812 C 103.007812 77.523438 102.492188 78.09375 101.925781 77.78125 C 97.339844 75.359375 91.207031 75.101562 86.15625 77.835938 C 85.640625 78.09375 85.074219 77.578125 85.074219 77.0625 L 85.074219 73.660156 C 85.074219 73.144531 85.074219 72.21875 85.640625 71.394531 L 94.609375 58.5625 L 86.828125 58.5625 C 86.363281 58.5625 85.953125 58.203125 85.953125 57.738281 Z M 31.488281 78.503906 L 26.953125 78.503906 C 26.539062 78.453125 26.179688 78.144531 26.128906 77.730469 L 26.128906 54.441406 C 26.128906 53.976562 26.539062 53.617188 27.003906 53.617188 L 31.230469 53.617188 C 31.691406 53.617188 32.003906 53.976562 32.054688 54.390625 L 32.054688 57.429688 L 32.15625 57.429688 C 33.238281 54.492188 35.351562 53.101562 38.132812 53.101562 C 40.96875 53.101562 42.773438 54.492188 44.007812 57.429688 C 45.089844 54.492188 47.613281 53.101562 50.292969 53.101562 C 52.199219 53.101562 54.261719 53.875 55.550781 55.675781 C 56.992188 57.636719 56.683594 60.46875 56.683594 62.996094 L 56.683594 77.730469 C 56.683594 78.195312 56.273438 78.554688 55.808594 78.554688 L 51.324219 78.554688 C 50.863281 78.503906 50.5 78.144531 50.5 77.730469 L 50.5 65.363281 C 50.5 64.386719 50.605469 61.914062 50.398438 60.984375 C 50.035156 59.4375 49.058594 58.976562 47.71875 58.976562 C 46.636719 58.976562 45.449219 59.695312 44.988281 60.882812 C 44.523438 62.066406 44.574219 64.023438 44.574219 65.363281 L 44.574219 77.730469 C 44.574219 78.195312 44.164062 78.554688 43.699219 78.554688 L 39.164062 78.554688 C 38.699219 78.503906 38.339844 78.144531 38.339844 77.730469 L 38.339844 65.363281 C 38.339844 62.789062 38.753906 58.921875 35.558594 58.921875 C 32.3125 58.921875 32.414062 62.632812 32.414062 65.363281 L 32.414062 77.730469 C 32.363281 78.144531 32.003906 78.503906 31.488281 78.503906 Z M 115.476562 53.101562 C 122.226562 53.101562 125.886719 58.871094 125.886719 66.242188 C 125.886719 73.351562 121.867188 79.019531 115.476562 79.019531 C 108.882812 79.019531 105.273438 73.25 105.273438 66.035156 C 105.222656 58.769531 108.882812 53.101562 115.476562 53.101562 Z M 115.476562 57.894531 C 112.128906 57.894531 111.921875 62.480469 111.921875 65.3125 C 111.921875 68.148438 111.871094 74.226562 115.425781 74.226562 C 118.929688 74.226562 119.136719 69.332031 119.136719 66.34375 C 119.136719 64.386719 119.03125 62.015625 118.464844 60.160156 C 117.949219 58.511719 116.917969 57.894531 115.476562 57.894531 Z M 134.59375 78.503906 L 130.058594 78.503906 C 129.59375 78.453125 129.234375 78.09375 129.234375 77.679688 L 129.234375 54.335938 C 129.285156 53.925781 129.648438 53.566406 130.109375 53.566406 L 134.335938 53.566406 C 134.75 53.566406 135.058594 53.875 135.160156 54.234375 L 135.160156 57.789062 L 135.261719 57.789062 C 136.550781 54.59375 138.304688 53.101562 141.445312 53.101562 C 143.457031 53.101562 145.464844 53.824219 146.753906 55.832031 C 147.9375 57.6875 147.9375 60.832031 147.9375 63.097656 L 147.9375 77.78125 C 147.886719 78.195312 147.527344 78.503906 147.0625 78.503906 L 142.527344 78.503906 C 142.117188 78.453125 141.753906 78.144531 141.703125 77.78125 L 141.703125 65.105469 C 141.703125 62.53125 142.011719 58.820312 138.871094 58.820312 C 137.789062 58.820312 136.757812 59.542969 136.242188 60.675781 C 135.625 62.117188 135.519531 63.507812 135.519531 65.105469 L 135.519531 77.679688 C 135.46875 78.144531 135.058594 78.503906 134.59375 78.503906 Z M 74.046875 67.375 C 74.046875 69.125 74.101562 70.621094 73.222656 72.21875 C 72.503906 73.507812 71.371094 74.277344 70.082031 74.277344 C 68.328125 74.277344 67.296875 72.9375 67.296875 70.980469 C 67.296875 67.117188 70.75 66.394531 74.046875 66.394531 Z M 78.632812 78.453125 C 78.324219 78.710938 77.914062 78.761719 77.554688 78.554688 C 76.058594 77.320312 75.75 76.699219 74.925781 75.515625 C 72.453125 78.039062 70.648438 78.8125 67.453125 78.8125 C 63.640625 78.8125 60.652344 76.441406 60.652344 71.753906 C 60.652344 68.042969 62.660156 65.570312 65.496094 64.335938 C 67.96875 63.25 71.421875 63.046875 74.046875 62.738281 L 74.046875 62.167969 C 74.046875 61.085938 74.152344 59.800781 73.480469 58.871094 C 72.914062 58.046875 71.882812 57.6875 70.957031 57.6875 C 69.207031 57.6875 67.660156 58.5625 67.296875 60.417969 C 67.195312 60.832031 66.9375 61.242188 66.527344 61.242188 L 62.144531 60.777344 C 61.785156 60.675781 61.375 60.417969 61.476562 59.851562 C 62.507812 54.492188 67.296875 52.894531 71.628906 52.894531 C 73.84375 52.894531 76.726562 53.460938 78.480469 55.164062 C 80.695312 57.222656 80.488281 60.003906 80.488281 62.996094 L 80.488281 70.054688 C 80.488281 72.167969 81.367188 73.09375 82.191406 74.277344 C 82.5 74.691406 82.550781 75.207031 82.191406 75.464844 C 81.210938 76.238281 79.5625 77.679688 78.632812 78.453125 Z M 14.535156 67.375 C 14.535156 69.125 14.585938 70.621094 13.710938 72.21875 C 12.988281 73.507812 11.855469 74.277344 10.566406 74.277344 C 8.816406 74.277344 7.785156 72.9375 7.785156 70.980469 C 7.785156 67.117188 11.238281 66.394531 14.535156 66.394531 Z M 19.070312 78.453125 C 18.761719 78.710938 18.347656 78.761719 17.988281 78.554688 C 16.492188 77.320312 16.183594 76.699219 15.359375 75.515625 C 12.886719 78.039062 11.082031 78.8125 7.886719 78.8125 C 4.074219 78.8125 1.085938 76.441406 1.085938 71.753906 C 1.085938 68.042969 3.09375 65.570312 5.929688 64.335938 C 8.402344 63.25 11.855469 63.046875 14.484375 62.738281 L 14.484375 62.167969 C 14.484375 61.085938 14.585938 59.800781 13.917969 58.871094 C 13.347656 58.046875 12.320312 57.6875 11.390625 57.6875 C 9.640625 57.6875 8.09375 58.5625 7.734375 60.417969 C 7.628906 60.832031 7.371094 61.242188 6.960938 61.242188 L 2.582031 60.777344 C 2.21875 60.675781 1.808594 60.417969 1.910156 59.851562 C 2.941406 54.492188 7.734375 52.894531 12.0625 52.894531 C 14.277344 52.894531 17.164062 53.460938 18.914062 55.164062 C 21.128906 57.222656 20.925781 60.003906 20.925781 62.996094 L 20.925781 70.054688 C 20.925781 72.167969 21.800781 73.09375 22.625 74.277344 C 22.933594 74.691406 22.984375 75.207031 22.625 75.464844 C 21.644531 76.238281 19.996094 77.679688 19.070312 78.453125 Z M 19.070312 78.453125 "/>
</g>
</svg>
