<svg width="95" height="32" viewBox="0 0 95 32" fill="none" xmlns="http://www.w3.org/2000/svg">
<g clip-path="url(#clip0_251_230)">
<path d="M22.6446 17.0038C22.606 12.9546 25.9527 11.0091 26.1032 10.9165C24.2195 8.16424 21.2936 7.78596 20.2514 7.7435C17.7616 7.48873 15.3915 9.21032 14.1254 9.21032C12.8593 9.21032 10.91 7.77824 8.84485 7.8207C6.12736 7.8593 3.62217 9.39947 2.22096 11.8313C-0.596891 16.7182 1.50299 23.9751 4.25522 27.9471C5.60239 29.8887 7.20046 32.0774 9.30806 31.9963C11.3385 31.9153 12.1027 30.6839 14.55 30.6839C16.9973 30.6839 17.6883 31.9963 19.8306 31.9577C22.0116 31.9153 23.3935 29.9737 24.729 28.0243C26.2654 25.7662 26.9023 23.5852 26.9409 23.4694C26.8907 23.4501 22.6909 21.8405 22.6446 17.0038Z" fill="#C2C2C2"/>
<path d="M36.7609 20.9834L34.9081 26.5998H32.5264L38.5906 8.7508H41.3698L47.4572 26.5998H44.9944L43.0876 20.9834H36.7609ZM42.6128 19.1807L40.868 14.043C40.4704 12.8772 40.2079 11.8196 39.9416 10.7851H39.8914C39.6251 11.8427 39.3356 12.9274 38.992 14.0159L37.2473 19.1769L42.6128 19.1807ZM49.2637 17.9648C49.2637 16.3243 49.2135 14.9964 49.1556 13.7805H51.2477L51.3558 15.9807H51.406C52.3595 14.4174 53.8687 13.491 55.9609 13.491C59.0605 13.491 61.3882 16.112 61.3882 20.0068C61.3882 24.6157 58.5819 26.8893 55.5633 26.8893C53.8687 26.8893 52.3865 26.1481 51.6183 24.8782H51.5681V31.8418H49.2637V17.9648ZM51.5643 21.381C51.5643 21.7284 51.6145 22.041 51.6724 22.3344C52.097 23.9479 53.4982 25.0635 55.1696 25.0635C57.6323 25.0635 59.0644 23.0524 59.0644 20.111C59.0644 17.5402 57.7134 15.3477 55.2506 15.3477C53.6642 15.3477 52.1819 16.4864 51.7264 18.235C51.6453 18.5245 51.5681 18.8719 51.5681 19.1884L51.5643 21.381ZM63.7969 17.9648C63.7969 16.3243 63.7467 14.9964 63.6888 13.7805H65.7809L65.889 15.9807H65.9392C66.8926 14.4174 68.4019 13.491 70.4941 13.491C73.5937 13.491 75.9213 16.112 75.9213 20.0068C75.9213 24.6157 73.1151 26.8893 70.0965 26.8893C68.4019 26.8893 66.9196 26.1481 66.1515 24.8782H66.1013V31.8418H63.7969V17.9648ZM66.1013 21.381C66.1013 21.7284 66.1515 22.041 66.2094 22.3344C66.634 23.9479 68.0352 25.0635 69.7066 25.0635C72.1693 25.0635 73.6014 23.0524 73.6014 20.111C73.6014 17.5402 72.2504 15.3477 69.7877 15.3477C68.2012 15.3477 66.7189 16.4864 66.2634 18.235C66.1824 18.5245 66.1052 18.8719 66.1052 19.1884L66.1013 21.381ZM78.3339 7.79736H80.6654V26.5959H78.3339V7.79736ZM85.3515 20.6128C85.4017 23.7626 87.4166 25.0635 89.7443 25.0635C91.4118 25.0635 92.4193 24.774 93.2917 24.4034L93.6892 26.0709C92.8709 26.4415 91.4658 26.8661 89.4277 26.8661C85.4827 26.8661 83.1242 24.2722 83.1242 20.4044C83.1242 16.5366 85.4017 13.491 89.1344 13.491C93.3187 13.491 94.4304 17.1696 94.4304 19.5281C94.4304 20.0068 94.3802 20.3735 94.3493 20.6128H85.3515ZM92.1838 18.9453C92.2108 17.463 91.5739 15.1585 88.9529 15.1585C86.5944 15.1585 85.5638 17.3317 85.3785 18.9453H92.1838Z" fill="#C2C2C2"/>
<path d="M20.2861 0C20.4907 1.876 19.7379 3.75585 18.6185 5.11074C17.503 6.46176 15.6656 7.51556 13.8784 7.3766C13.6313 5.5392 14.5384 3.62461 15.5729 2.42799C16.7271 1.0731 18.6764 0.0656212 20.2861 0Z" fill="#C2C2C2"/>
</g>
<defs>
<clipPath id="clip0_251_230">
<rect width="93.5489" height="32" fill="white" transform="translate(0.885376)"/>
</clipPath>
</defs>
</svg>
