<?xml version="1.0" encoding="UTF-8"?>
<svg xmlns="http://www.w3.org/2000/svg" xmlns:xlink="http://www.w3.org/1999/xlink" width="150px" height="px" viewBox="0 0 150 150" version="1.1">
<defs>
<clipPath id="clip1">
  <path d="M 1.398438 49.738281 L 149.105469 49.738281 L 149.105469 100.261719 L 1.398438 100.261719 Z M 1.398438 49.738281 "/>
</clipPath>
</defs>
<g id="surface1">
<g clip-path="url(#clip1)" clip-rule="nonzero">
<path style=" stroke:none;fill-rule:nonzero;fill:rgb(25.098039%,23.921569%,23.921569%);fill-opacity:1;" d="M 35.753906 76.585938 C 35.695312 70.191406 40.976562 67.121094 41.214844 66.972656 C 38.242188 62.628906 33.621094 62.03125 31.976562 61.964844 C 28.042969 61.5625 24.300781 64.28125 22.304688 64.28125 C 20.304688 64.28125 17.226562 62.019531 13.964844 62.085938 C 9.675781 62.144531 5.71875 64.578125 3.507812 68.417969 C -0.941406 76.132812 2.375 87.59375 6.71875 93.863281 C 8.847656 96.929688 11.371094 100.386719 14.695312 100.257812 C 17.902344 100.128906 19.109375 98.183594 22.972656 98.183594 C 26.835938 98.183594 27.929688 100.257812 31.3125 100.195312 C 34.753906 100.128906 36.9375 97.0625 39.046875 93.984375 C 41.472656 90.421875 42.476562 86.976562 42.539062 86.792969 C 42.460938 86.761719 35.828125 84.222656 35.753906 76.585938 Z M 58.042969 82.867188 L 55.117188 91.738281 L 51.359375 91.738281 L 60.933594 63.554688 L 65.320312 63.554688 L 74.933594 91.738281 L 71.042969 91.738281 L 68.03125 82.867188 Z M 67.285156 80.023438 L 64.527344 71.910156 C 63.902344 70.070312 63.484375 68.398438 63.066406 66.765625 L 62.988281 66.765625 C 62.566406 68.4375 62.109375 70.148438 61.566406 71.867188 L 58.8125 80.015625 Z M 77.785156 78.101562 C 77.785156 75.511719 77.707031 73.414062 77.613281 71.496094 L 80.917969 71.496094 L 81.089844 74.96875 L 81.167969 74.96875 C 82.671875 72.5 85.054688 71.039062 88.359375 71.039062 C 93.253906 71.039062 96.929688 75.175781 96.929688 81.328125 C 96.929688 88.605469 92.496094 92.195312 87.730469 92.195312 C 85.054688 92.195312 82.714844 91.023438 81.503906 89.019531 L 81.421875 89.019531 L 81.421875 100.011719 L 77.785156 100.011719 Z M 81.417969 83.496094 C 81.417969 84.042969 81.496094 84.539062 81.589844 85 C 82.257812 87.550781 84.472656 89.3125 87.109375 89.3125 C 91 89.3125 93.257812 86.136719 93.257812 81.492188 C 93.257812 77.433594 91.125 73.96875 87.238281 73.96875 C 84.734375 73.96875 82.390625 75.769531 81.671875 78.527344 C 81.546875 78.984375 81.421875 79.535156 81.421875 80.035156 Z M 100.730469 78.101562 C 100.730469 75.511719 100.652344 73.414062 100.5625 71.496094 L 103.863281 71.496094 L 104.035156 74.96875 L 104.113281 74.96875 C 105.621094 72.5 108.003906 71.039062 111.304688 71.039062 C 116.199219 71.039062 119.875 75.175781 119.875 81.328125 C 119.875 88.605469 115.445312 92.195312 110.679688 92.195312 C 108.003906 92.195312 105.664062 91.023438 104.449219 89.019531 L 104.371094 89.019531 L 104.371094 100.011719 L 100.730469 100.011719 Z M 104.371094 83.496094 C 104.371094 84.042969 104.449219 84.539062 104.542969 85 C 105.210938 87.550781 107.425781 89.3125 110.0625 89.3125 C 113.953125 89.3125 116.210938 86.136719 116.210938 81.492188 C 116.210938 77.433594 114.078125 73.96875 110.191406 73.96875 C 107.6875 73.96875 105.34375 75.769531 104.625 78.527344 C 104.5 78.984375 104.375 79.535156 104.375 80.035156 Z M 123.683594 62.046875 L 127.367188 62.046875 L 127.367188 91.730469 L 123.683594 91.730469 Z M 134.765625 82.285156 C 134.84375 87.257812 138.027344 89.3125 141.703125 89.3125 C 144.335938 89.3125 145.925781 88.855469 147.300781 88.269531 L 147.929688 90.902344 C 146.636719 91.488281 144.417969 92.15625 141.203125 92.15625 C 134.972656 92.15625 131.25 88.0625 131.25 81.953125 C 131.25 75.847656 134.84375 71.039062 140.738281 71.039062 C 147.34375 71.039062 149.101562 76.847656 149.101562 80.570312 C 149.101562 81.328125 149.019531 81.90625 148.972656 82.285156 Z M 145.554688 79.652344 C 145.597656 77.308594 144.589844 73.671875 140.453125 73.671875 C 136.726562 73.671875 135.101562 77.101562 134.808594 79.652344 Z M 32.03125 49.738281 C 32.355469 52.699219 31.164062 55.667969 29.398438 57.804688 C 27.636719 59.941406 24.734375 61.605469 21.914062 61.382812 C 21.523438 58.484375 22.957031 55.460938 24.589844 53.570312 C 26.410156 51.429688 29.488281 49.839844 32.03125 49.738281 Z M 32.03125 49.738281 "/>
</g>
</g>
</svg>
