<svg width="1366" height="371" viewBox="0 0 1366 371" fill="none" xmlns="http://www.w3.org/2000/svg">
<path d="M82.5846 310.994L88.4875 326.179C90.648 331.737 96.0635 335.342 102.025 335.19L118.312 334.776L103.126 340.679C97.5684 342.839 93.9635 348.255 94.1152 354.216L94.5296 370.503L88.6268 355.318C86.4663 349.76 81.0508 346.155 75.0895 346.306L58.8025 346.721L73.9879 340.818C79.5459 338.657 83.1508 333.242 82.9991 327.281L82.5846 310.994Z" fill="white"/>
<path d="M1353.59 50.9879L1352.46 57.1227C1352.05 59.3682 1353.09 61.6309 1355.06 62.779L1360.45 65.9157L1354.32 64.789C1352.07 64.3767 1349.81 65.4175 1348.66 67.3908L1345.52 72.7822L1346.65 66.6473C1347.06 64.4019 1346.02 62.1391 1344.05 60.9911L1338.66 57.8543L1344.79 58.981C1347.04 59.3934 1349.3 58.3526 1350.45 56.3793L1353.59 50.9879Z" fill="white"/>
<path d="M1291.9 297.56L1291.14 303.751C1290.87 306.017 1292.04 308.214 1294.08 309.242L1299.65 312.051L1293.46 311.293C1291.19 311.015 1288.99 312.189 1287.97 314.228L1285.16 319.797L1285.91 313.606C1286.19 311.34 1285.02 309.143 1282.98 308.115L1277.41 305.305L1283.6 306.064C1285.87 306.342 1288.06 305.167 1289.09 303.129L1291.9 297.56Z" fill="white"/>
<path d="M1181.98 112.194L1179.77 123.701C1179.46 125.305 1181.08 126.593 1182.57 125.928L1193.28 121.157L1183.57 127.727C1182.22 128.643 1182.46 130.701 1183.98 131.286L1194.92 135.481L1183.42 133.266C1181.81 132.957 1180.53 134.58 1181.19 136.071L1185.96 146.775L1179.39 137.071C1178.48 135.719 1176.42 135.956 1175.83 137.481L1171.64 148.423L1173.85 136.916C1174.16 135.312 1172.54 134.024 1171.05 134.689L1160.34 139.46L1170.05 132.889C1171.4 131.974 1171.16 129.916 1169.64 129.331L1158.7 125.136L1170.2 127.351C1171.81 127.66 1173.09 126.037 1172.43 124.546L1167.66 113.842L1174.23 123.545C1175.14 124.897 1177.2 124.661 1177.79 123.136L1181.98 112.194Z" fill="white"/>
<path d="M10.5371 36.8608L17.8257 46.05C19.436 48.0802 22.5143 48.0906 24.1383 46.0713L31.4888 36.9316L27.175 47.8383C26.2219 50.2479 27.7521 52.919 30.3128 53.3158L41.9032 55.1117L30.301 56.8292C27.7376 57.2086 26.1894 59.8694 27.1262 62.2854L31.3661 73.2209L24.0776 64.0318C22.4673 62.0016 19.389 61.9912 17.765 64.0105L10.4145 73.1501L14.7282 62.2435C15.6813 59.8338 14.1511 57.1627 11.5904 56.766L0 54.9701L11.6023 53.2526C14.1656 52.8731 15.7138 50.2124 14.7771 47.7964L10.5371 36.8608Z" fill="white"/>
<path d="M359.804 0L372.347 15.8141C373.958 17.8443 377.036 17.8547 378.66 15.8355L391.31 0.106475L383.886 18.8764C382.933 21.286 384.463 23.9571 387.024 24.3539L406.971 27.4445L387.003 30.4003C384.44 30.7797 382.892 33.4404 383.829 35.8565L391.125 54.6761L378.582 38.862C376.972 36.8318 373.894 36.8214 372.27 38.8406L359.62 54.5696L367.043 35.7997C367.997 33.3901 366.466 30.719 363.906 30.3222L343.959 27.2316L363.926 24.2758C366.489 23.8964 368.038 21.2357 367.101 18.8196L359.804 0Z" fill="white"/>
</svg>
