<svg width="64" height="64" viewBox="0 0 64 64" fill="none" xmlns="http://www.w3.org/2000/svg">
<path d="M31.0001 2V6.03C22.8751 6.50375 16.2751 12.7 15.1626 20.6375C14.5376 20.2375 13.8001 20 13.0001 20C10.8026 20 9.00012 21.8 9.00012 24C9.00012 25.85 10.2764 27.425 11.9901 27.875L12.3851 31.65C12.3539 39.625 12.7126 48.6125 12.0876 56.9375C11.7376 56.025 11.7076 55.425 11.5226 54.325L9.99512 54.6C10.2701 56.3125 10.6176 57.975 11.6351 59.4625C14.6251 58.3 15.4126 51.85 16.2126 47.725L13.6001 46.275L16.6376 45.4C16.9251 43.6125 17.1126 42.4875 17.2126 41.35L14.7751 39.45L17.3001 39.475C17.3001 38.9875 17.3001 38.4625 17.2876 37.8625C17.2376 36.2375 15.8126 32.6125 14.3751 31.8375L13.9626 27.875C14.5376 27.7375 15.0501 27.475 15.5001 27.1125C17.2751 34.2 23.4876 39.5375 31.0001 39.975V41.175C29.8376 41.5875 29.0001 42.7 29.0001 44C29.0001 45.45 30.0376 46.6625 31.4126 46.9375C29.8501 47.3875 28.2626 49.3375 28.4376 50.2125C29.4751 55.4125 30.3001 61.2875 32.2876 61.85C34.7376 59.3875 34.9876 54.4375 35.4751 49.7125C35.5376 49.1125 34.0251 47.3625 32.6001 46.9375C33.9626 46.65 35.0001 45.4375 35.0001 44C35.0001 42.7 34.1626 41.5875 33.0001 41.175V39.975C40.5126 39.5375 46.7251 34.2 48.5001 27.1125C48.9876 27.5 49.5626 27.7875 50.1876 27.9125L50.6001 33.175C49.1501 33.85 47.8876 35.75 47.8376 37.1875C47.7626 39.9625 47.9501 42.9875 48.5001 45.9625L51.4001 47.2375L48.7501 47.2C48.8001 47.4375 48.8501 47.6625 48.9126 47.9L49.8626 48.925L49.2251 49.1C50.1126 52.2625 51.4501 55.225 53.3376 57.575C54.0251 56.2625 54.5626 54.8125 54.9751 53.275L53.4501 53.0375C53.3751 54.0125 53.2876 54.9875 53.1876 55.95C52.5626 48.6375 52.6126 40.05 52.5876 33L52.1751 27.825C53.8126 27.3125 55.0001 25.7875 55.0001 24C55.0001 21.8 53.2001 20 51.0001 20C50.2001 20 49.4626 20.2375 48.8376 20.6375C47.7251 12.7 41.1251 6.50375 33.0001 6.03V2H31.0001ZM32.0001 8C40.3001 8 47.0001 14.7 47.0001 23C47.0001 31.3 40.3001 38 32.0001 38C23.7001 38 17.0001 31.3 17.0001 23C17.0001 14.7 23.7001 8 32.0001 8ZM31.4001 9.87625C30.5501 9.915 29.7251 10.0325 28.9251 10.2237C28.4626 11.2037 28.1501 12.2325 27.9751 13.275C27.1001 12.6625 26.1501 12.1612 25.1376 11.7912C24.4251 12.2287 23.7626 12.7375 23.1376 13.2875C24.9251 13.675 26.5251 14.525 27.8126 15.7125C27.8626 17.0375 28.1376 18.3625 28.6251 19.625C27.3626 19.1375 26.0376 18.8625 24.7126 18.8125C23.5251 17.525 22.6751 15.925 22.2876 14.15C21.7251 14.7625 21.2251 15.425 20.7876 16.1375C21.1626 17.15 21.6751 18.1 22.2876 18.975C21.2376 19.15 20.2001 19.4625 19.2251 19.925C19.0376 20.725 18.9126 21.55 18.8751 22.4C20.4001 21.4125 22.1376 20.875 23.8876 20.8125C24.8626 21.7125 25.9876 22.4625 27.2251 23C25.9876 23.5375 24.8626 24.2875 23.8876 25.2C22.1376 25.125 20.4001 24.6 18.8751 23.6125C18.9126 24.4625 19.0376 25.275 19.2251 26.075C20.2001 26.5375 21.2376 26.85 22.2876 27.025C21.6751 27.9 21.1626 28.85 20.7876 29.8625C21.2251 30.575 21.7251 31.2375 22.2876 31.85C22.6751 30.075 23.5251 28.475 24.7126 27.1875C26.0376 27.1375 27.3626 26.8625 28.6251 26.375C28.1376 27.6375 27.8626 28.95 27.8126 30.2875C26.5251 31.475 24.9251 32.325 23.1376 32.7C23.7501 33.2625 24.4251 33.775 25.1376 34.2125C26.1626 33.8375 27.1126 33.3375 27.9751 32.725C28.1501 33.775 28.4626 34.8 28.9251 35.775C29.7251 35.9625 30.5376 36.0875 31.3876 36.125C30.4001 34.6 29.8751 32.875 29.8001 31.1125C30.7126 30.1375 31.4626 29.0125 32.0001 27.775C32.5376 29.0125 33.2876 30.1375 34.1876 31.1125C34.1251 32.8625 33.5876 34.6 32.6001 36.125C33.4501 36.0875 34.2751 35.9625 35.0751 35.775C35.5376 34.8 35.8501 33.775 36.0251 32.725C36.9001 33.3375 37.8501 33.8375 38.8626 34.2125C39.5751 33.775 40.2501 33.2625 40.8626 32.7C39.0751 32.325 37.4751 31.475 36.1876 30.2875C36.1376 28.9625 35.8751 27.6375 35.3751 26.375C36.6376 26.875 37.9626 27.1375 39.2876 27.1875C40.4751 28.475 41.3251 30.075 41.7126 31.85C42.2751 31.2375 42.7751 30.575 43.2126 29.8625C42.8376 28.85 42.3376 27.9 41.7251 27.025C42.7751 26.85 43.8001 26.5375 44.7751 26.075C44.9626 25.275 45.0876 24.45 45.1251 23.6C43.6001 24.5875 41.8626 25.125 40.1126 25.1875C39.1376 24.2875 38.0126 23.5375 36.7751 23C38.0126 22.4625 39.1376 21.7125 40.1126 20.8C41.8626 20.875 43.6001 21.4 45.1251 22.3875C45.0876 21.5375 44.9626 20.725 44.7751 19.925C43.8001 19.4625 42.7626 19.15 41.7126 18.975C42.3251 18.1 42.8376 17.15 43.2126 16.1375C42.7751 15.425 42.2626 14.75 41.7001 14.1375C41.3251 15.925 40.4751 17.525 39.2876 18.8125C37.9501 18.8625 36.6376 19.1375 35.3751 19.625C35.8626 18.3625 36.1376 17.0375 36.1876 15.7125C37.4751 14.525 39.0751 13.6625 40.8626 13.2875C40.2376 12.725 39.5751 12.2287 38.8626 11.7912C37.8501 12.1612 36.9001 12.6625 36.0251 13.275C35.8501 12.2325 35.5376 11.2037 35.0751 10.2237C34.2751 10.0325 33.4501 9.915 32.6001 9.87625C33.6001 11.4012 34.1251 13.1375 34.2001 14.8875C33.2876 15.8625 32.5376 16.9875 32.0001 18.225C31.4626 16.9875 30.7126 15.8625 29.8001 14.8875C29.8751 13.1375 30.4001 11.4012 31.4001 9.87625ZM32.0001 20C33.6501 20 35.0001 21.35 35.0001 23C35.0001 24.65 33.6501 26 32.0001 26C30.3501 26 29.0001 24.65 29.0001 23C29.0001 21.35 30.3501 20 32.0001 20ZM13.0001 22C14.1126 22 15.0001 22.8875 15.0001 24C15.0001 25.1125 14.1126 26 13.0001 26C11.8839 26 11.0001 25.1125 11.0001 24C11.0001 22.8875 11.8839 22 13.0001 22ZM32.0001 22C31.4376 22 31.0001 22.4375 31.0001 23C31.0001 23.5625 31.4376 24 32.0001 24C32.5626 24 33.0001 23.5625 33.0001 23C33.0001 22.4375 32.5626 22 32.0001 22ZM51.0001 22C52.1126 22 53.0001 22.8875 53.0001 24C53.0001 25.1125 52.1126 26 51.0001 26C49.8876 26 49.0001 25.1125 49.0001 24C49.0001 22.8875 49.8876 22 51.0001 22ZM10.9726 32.2125C9.70762 32.95 8.64512 34.125 8.62012 35.075C8.37012 40.425 8.53262 46.425 9.70762 53.3125L11.5101 54.0125C11.0351 46.7125 11.0476 39.475 10.9726 32.2125ZM54.0001 33.5C53.9251 39.9125 53.9376 46.3125 53.4626 52.7625L55.2626 52.1375C56.2126 48.175 56.4626 43.7125 56.4251 39.2375L54.6001 39.2L56.4001 38.15C56.4001 37.4375 56.3876 36.725 56.3501 36.025C56.3251 35.1875 55.2626 34.15 54.0001 33.5ZM32.0001 43C32.5626 43 33.0001 43.4375 33.0001 44C33.0001 44.5625 32.5626 45 32.0001 45C31.4376 45 31.0001 44.5625 31.0001 44C31.0001 43.4375 31.4376 43 32.0001 43ZM31.4751 46.95C31.6501 46.9875 31.8251 47 32.0001 47C32.1626 47 32.3126 46.9875 32.4626 46.9625L32.1751 58.2875L31.4751 46.95Z" fill="white"/>
</svg>
