<svg width="99" height="32" viewBox="0 0 99 32" fill="none" xmlns="http://www.w3.org/2000/svg">
<g clip-path="url(#clip0_251_212)">
<path d="M95.076 19.5518L97.7777 21.3529C96.9009 22.6445 94.8035 24.8604 91.1775 24.8604C86.6747 24.8604 83.3212 21.3766 83.3212 16.9448C83.3212 12.2287 86.7102 9.0293 90.7983 9.0293C94.9101 9.0293 96.9246 12.2998 97.5763 14.0654L97.9318 14.966L87.3382 19.3503C88.144 20.9382 89.4001 21.7439 91.1775 21.7439C92.955 21.7439 94.1873 20.8671 95.076 19.5518ZM86.7695 16.696L93.8437 13.7573C93.4526 12.7738 92.2914 12.0746 90.905 12.0746C89.1394 12.0746 86.6865 13.6388 86.7695 16.696Z" fill="#C2C2C2"/>
<path d="M78.214 0.959473H81.6267V24.1373H78.214V0.959473Z" fill="#C2C2C2"/>
<path d="M72.8343 9.64512H76.1285V23.7225C76.1285 29.5643 72.6803 31.9698 68.604 31.9698C64.7647 31.9698 62.454 29.3866 61.589 27.2892L64.6107 26.0331C65.1558 27.3247 66.4711 28.8533 68.604 28.8533C71.2228 28.8533 72.8343 27.2299 72.8343 24.1964V23.0589H72.7158C71.9337 24.0068 70.4407 24.86 68.5448 24.86C64.587 24.86 60.961 21.4118 60.961 16.9682C60.961 12.5009 64.587 9.01709 68.5448 9.01709C70.4288 9.01709 71.9337 9.85841 72.7158 10.7827H72.8343V9.64512ZM73.0713 16.9682C73.0713 14.1717 71.2109 12.1335 68.841 12.1335C66.4474 12.1335 64.4329 14.1717 64.4329 16.9682C64.4329 19.7291 66.4474 21.7317 68.841 21.7317C71.2109 21.7436 73.0713 19.7291 73.0713 16.9682Z" fill="#C2C2C2"/>
<path d="M42.2268 16.9093C42.2268 21.4714 38.6719 24.8249 34.3112 24.8249C29.9506 24.8249 26.3957 21.4596 26.3957 16.9093C26.3957 12.3235 29.9506 8.98193 34.3112 8.98193C38.6719 8.98193 42.2268 12.3235 42.2268 16.9093ZM38.7667 16.9093C38.7667 14.0654 36.7049 12.1102 34.3112 12.1102C31.9176 12.1102 29.8558 14.0654 29.8558 16.9093C29.8558 19.7295 31.9176 21.7084 34.3112 21.7084C36.7049 21.7084 38.7667 19.7295 38.7667 16.9093Z" fill="#C2C2C2"/>
<path d="M59.5153 16.9448C59.5153 21.5069 55.9605 24.8604 51.5998 24.8604C47.2391 24.8604 43.6843 21.5069 43.6843 16.9448C43.6843 12.359 47.2391 9.0293 51.5998 9.0293C55.9605 9.0293 59.5153 12.3472 59.5153 16.9448ZM56.0434 16.9448C56.0434 14.1009 53.9816 12.1457 51.588 12.1457C49.1943 12.1457 47.1325 14.1009 47.1325 16.9448C47.1325 19.765 49.1943 21.7439 51.588 21.7439C53.9934 21.7439 56.0434 19.7532 56.0434 16.9448Z" fill="#C2C2C2"/>
<path d="M13.3848 21.3883C8.41982 21.3883 4.53315 17.3831 4.53315 12.4181C4.53315 7.45311 8.41982 3.44794 13.3848 3.44794C16.0628 3.44794 18.018 4.50256 19.4637 5.85341L21.8454 3.47164C19.831 1.54015 17.1411 0.0708008 13.3848 0.0708008C6.58313 0.0708008 0.859772 5.61642 0.859772 12.4181C0.859772 19.2198 6.58313 24.7654 13.3848 24.7654C17.0582 24.7654 19.831 23.5567 21.9995 21.3053C24.2272 19.0776 24.9145 15.9493 24.9145 13.4135C24.9145 12.6195 24.8197 11.8019 24.713 11.1976H13.3848V14.4918H21.4544C21.2174 16.5536 20.5657 17.9637 19.6059 18.9235C18.4446 20.0966 16.6079 21.3883 13.3848 21.3883Z" fill="#C2C2C2"/>
</g>
<defs>
<clipPath id="clip0_251_212">
<rect width="98.087" height="32" fill="white" transform="translate(0.516113)"/>
</clipPath>
</defs>
</svg>
