<?xml version="1.0" encoding="UTF-8"?>
<svg xmlns="http://www.w3.org/2000/svg" xmlns:xlink="http://www.w3.org/1999/xlink" width="150px" height="px" viewBox="0 0 150 150" version="1.1">
<defs>
<clipPath id="clip1">
  <path d="M 1 50.757812 L 149 50.757812 L 149 99.242188 L 1 99.242188 Z M 1 50.757812 "/>
</clipPath>
</defs>
<g id="surface1">
<g clip-path="url(#clip1)" clip-rule="nonzero">
<path style=" stroke:none;fill-rule:nonzero;fill:rgb(25.098039%,23.921569%,23.921569%);fill-opacity:1;" d="M 144.054688 80.382812 L 148.148438 83.109375 C 146.820312 85.066406 143.640625 88.425781 138.148438 88.425781 C 131.324219 88.425781 126.246094 83.144531 126.246094 76.429688 C 126.246094 69.285156 131.378906 64.4375 137.574219 64.4375 C 143.804688 64.4375 146.855469 69.394531 147.84375 72.070312 L 148.382812 73.433594 L 132.332031 80.078125 C 133.550781 82.480469 135.453125 83.703125 138.148438 83.703125 C 140.839844 83.703125 142.707031 82.375 144.054688 80.382812 Z M 131.46875 76.054688 L 142.1875 71.601562 C 141.59375 70.113281 139.835938 69.050781 137.734375 69.050781 C 135.058594 69.050781 131.34375 71.421875 131.46875 76.054688 Z M 118.507812 52.210938 L 123.675781 52.210938 L 123.675781 87.328125 L 118.507812 87.328125 Z M 110.355469 65.371094 L 115.347656 65.371094 L 115.347656 86.699219 C 115.347656 95.550781 110.121094 99.195312 103.945312 99.195312 C 98.128906 99.195312 94.628906 95.28125 93.316406 92.105469 L 97.894531 90.203125 C 98.722656 92.160156 100.714844 94.476562 103.945312 94.476562 C 107.914062 94.476562 110.355469 92.015625 110.355469 87.417969 L 110.355469 85.695312 L 110.175781 85.695312 C 108.992188 87.132812 106.726562 88.425781 103.855469 88.425781 C 97.859375 88.425781 92.363281 83.199219 92.363281 76.46875 C 92.363281 69.699219 97.859375 64.417969 103.855469 64.417969 C 106.710938 64.417969 108.992188 65.695312 110.175781 67.09375 L 110.355469 67.09375 Z M 110.714844 76.46875 C 110.714844 72.230469 107.894531 69.140625 104.304688 69.140625 C 100.679688 69.140625 97.625 72.230469 97.625 76.46875 C 97.625 80.648438 100.679688 83.683594 104.304688 83.683594 C 107.894531 83.703125 110.714844 80.648438 110.714844 76.46875 Z M 63.980469 76.378906 C 63.980469 83.289062 58.59375 88.371094 51.988281 88.371094 C 45.378906 88.371094 39.992188 83.273438 39.992188 76.378906 C 39.992188 69.429688 45.378906 64.367188 51.988281 64.367188 C 58.59375 64.367188 63.980469 69.429688 63.980469 76.378906 Z M 58.738281 76.378906 C 58.738281 72.070312 55.613281 69.105469 51.988281 69.105469 C 48.359375 69.105469 45.234375 72.070312 45.234375 76.378906 C 45.234375 80.652344 48.359375 83.648438 51.988281 83.648438 C 55.613281 83.648438 58.738281 80.652344 58.738281 76.378906 Z M 90.175781 76.429688 C 90.175781 83.34375 84.789062 88.425781 78.179688 88.425781 C 71.574219 88.425781 66.1875 83.34375 66.1875 76.429688 C 66.1875 69.484375 71.574219 64.4375 78.179688 64.4375 C 84.789062 64.4375 90.175781 69.464844 90.175781 76.429688 Z M 84.914062 76.429688 C 84.914062 72.121094 81.789062 69.160156 78.164062 69.160156 C 74.535156 69.160156 71.414062 72.121094 71.414062 76.429688 C 71.414062 80.703125 74.535156 83.703125 78.164062 83.703125 C 81.808594 83.703125 84.914062 80.6875 84.914062 76.429688 Z M 20.28125 83.164062 C 12.757812 83.164062 6.867188 77.09375 6.867188 69.574219 C 6.867188 62.050781 12.757812 55.980469 20.28125 55.980469 C 24.335938 55.980469 27.300781 57.578125 29.492188 59.625 L 33.097656 56.019531 C 30.046875 53.089844 25.972656 50.863281 20.28125 50.863281 C 9.972656 50.863281 1.300781 59.265625 1.300781 69.574219 C 1.300781 79.878906 9.972656 88.28125 20.28125 88.28125 C 25.847656 88.28125 30.046875 86.449219 33.332031 83.039062 C 36.707031 79.664062 37.75 74.921875 37.75 71.082031 C 37.75 69.878906 37.605469 68.640625 37.445312 67.722656 L 20.28125 67.722656 L 20.28125 72.714844 L 32.507812 72.714844 C 32.148438 75.839844 31.160156 77.976562 29.707031 79.429688 C 27.945312 81.207031 25.164062 83.164062 20.28125 83.164062 Z M 20.28125 83.164062 "/>
</g>
</g>
</svg>
