<svg width="140" height="140" viewBox="0 0 140 140" fill="none" xmlns="http://www.w3.org/2000/svg">
<path d="M8.81063 74.2982C11.3238 42.7304 37.7972 17.8071 70.0002 17.8071C102.203 17.8071 128.677 42.7304 131.19 74.2982H136.115C133.59 40.0198 104.912 12.8948 70.0002 12.8948C35.088 12.8948 6.41039 40.0198 3.88574 74.2982H8.81063Z" fill="url(#paint0_linear_251_132)"/>
<path d="M87.8436 15.3508H52.1567C46.1649 17.0281 40.5168 19.5262 35.3359 22.7192H45.983C53.3648 19.5672 61.4779 17.8071 70.0002 17.8071C78.5224 17.8071 86.6356 19.5672 94.0173 22.7194H104.664C99.4836 19.5265 93.8352 17.0281 87.8436 15.3508Z" fill="url(#paint1_linear_251_132)"/>
<path d="M9.82461 85.3508H2.45602C1.0984 85.3508 0 84.251 0 82.8948V75.5264C0 74.1699 1.0984 73.0704 2.45602 73.0704H9.82461C11.1822 73.0704 12.2806 74.1702 12.2806 75.5264V82.8948C12.2806 84.251 11.1822 85.3508 9.82461 85.3508ZM4.9123 80.4385H7.36832V77.9825H4.9123V80.4385Z" fill="#707487"/>
<path d="M135.088 77.9825V80.4385H132.632V77.9825H135.088ZM137.544 73.0702H130.175C128.819 73.0702 127.719 74.17 127.719 75.5262V82.8945C127.719 84.2511 128.819 85.3505 130.175 85.3505H137.544C138.9 85.3505 140 84.2508 140 82.8945V75.5262C140 74.17 138.9 73.0702 137.544 73.0702Z" fill="#707487"/>
<path d="M133.86 12.8948H6.14014V17.8071H133.86V12.8948Z" fill="#464655"/>
<path d="M73.6842 21.491H66.3159C64.9594 21.491 63.8599 20.3913 63.8599 19.035V11.6667C63.8599 10.3102 64.9596 9.21069 66.3159 9.21069H73.6842C75.0407 9.21069 76.1402 10.3105 76.1402 11.6667V19.035C76.1402 20.3916 75.0404 21.491 73.6842 21.491Z" fill="#5B5D6E"/>
<path d="M6.14031 21.4911C9.53151 21.4911 12.2806 18.742 12.2806 15.3508C12.2806 11.9596 9.53151 9.21045 6.14031 9.21045C2.74911 9.21045 0 11.9596 0 15.3508C0 18.742 2.74911 21.4911 6.14031 21.4911Z" fill="#5B5D6E"/>
<path d="M133.86 21.4911C137.251 21.4911 140 18.742 140 15.3508C140 11.9596 137.251 9.21045 133.86 9.21045C130.468 9.21045 127.719 11.9596 127.719 15.3508C127.719 18.742 130.468 21.4911 133.86 21.4911Z" fill="#5B5D6E"/>
<path d="M75.5052 27.6317H74.9121C73.5556 27.6317 72.4561 28.7315 72.4561 30.0877V79.1927C72.4561 80.1167 72.977 80.96 73.8055 81.3687C77.1053 82.9984 79.2174 86.6526 78.4326 90.7364C77.8111 93.9698 75.2583 96.6531 72.05 97.3944C66.412 98.697 61.4035 94.4508 61.4035 89.0348C61.4035 85.6508 63.3714 82.7526 66.2171 81.3575C67.0385 80.955 67.5438 80.1074 67.5438 79.1927V30.0877C67.5438 28.7312 66.444 27.6317 65.0878 27.6317H64.4947C63.393 27.6317 62.4267 28.3648 62.1294 29.4257L45.998 87.0374C45.6439 88.3018 45.8033 89.643 46.4546 90.7832C48.7225 94.7524 54.4491 105.147 60.1755 118.509H79.8247C85.5513 105.147 91.2776 94.7521 93.5452 90.7832C94.1968 89.6432 94.3557 88.3018 94.0019 87.0374L77.871 29.4257C77.5737 28.3648 76.6069 27.6317 75.5052 27.6317Z" fill="#C7CFE2"/>
<path d="M72.4561 30.0876V79.1926C72.4561 80.1166 72.977 80.9599 73.8055 81.3687C76.2637 82.5827 78.0585 84.9217 78.4919 87.7236L74.9123 27.6313C73.5558 27.6316 72.4561 28.7314 72.4561 30.0876Z" fill="#AFB9D2"/>
<path d="M82.2807 130.79H57.7192C56.3627 130.79 55.2632 129.69 55.2632 128.333V120.965C55.2632 119.609 56.363 118.509 57.7192 118.509H82.2807C83.6372 118.509 84.7367 119.609 84.7367 120.965V128.333C84.737 129.69 83.6372 130.79 82.2807 130.79Z" fill="url(#paint2_linear_251_132)"/>
<path d="M65.0878 128.333V120.965C65.0878 119.608 66.1876 118.509 67.5438 118.509H57.7192C56.3627 118.509 55.2632 119.609 55.2632 120.965V128.333C55.2632 129.69 56.363 130.789 57.7192 130.789H67.5438C66.1876 130.79 65.0878 129.69 65.0878 128.333Z" fill="url(#paint3_linear_251_132)"/>
<path d="M65.6412 111.872C63.3902 104.644 60.3007 96.0567 58.7279 91.7635C58.0626 89.9476 57.8419 88.0138 58.0724 86.0937L65.0877 27.6317H64.4947C63.393 27.6317 62.4264 28.3648 62.1294 29.4257L45.998 87.0374C45.6439 88.3018 45.8033 89.6432 46.4549 90.7832C48.7225 94.7524 54.4494 105.147 60.1754 118.509H79.8247C80.5476 116.822 81.2706 115.182 81.987 113.597H67.9834C66.905 113.597 65.9617 112.901 65.6412 111.872Z" fill="#AFB9D2"/>
<defs>
<linearGradient id="paint0_linear_251_132" x1="-44.2574" y1="74.2791" x2="141.08" y2="40.2185" gradientUnits="userSpaceOnUse">
<stop stop-color="#61285B"/>
<stop offset="0.432292" stop-color="#45389E"/>
<stop offset="1" stop-color="#1E50FF"/>
</linearGradient>
<linearGradient id="paint1_linear_251_132" x1="10.0942" y1="22.7171" x2="71.1721" y2="-26.3245" gradientUnits="userSpaceOnUse">
<stop stop-color="#61285B"/>
<stop offset="0.432292" stop-color="#45389E"/>
<stop offset="1" stop-color="#1E50FF"/>
</linearGradient>
<linearGradient id="paint2_linear_251_132" x1="44.5322" y1="130.786" x2="85.5192" y2="122.391" gradientUnits="userSpaceOnUse">
<stop stop-color="#61285B"/>
<stop offset="0.432292" stop-color="#45389E"/>
<stop offset="1" stop-color="#1E50FF"/>
</linearGradient>
<linearGradient id="paint3_linear_251_132" x1="50.7919" y1="130.785" x2="68.4576" y2="129.278" gradientUnits="userSpaceOnUse">
<stop stop-color="#61285B"/>
<stop offset="0.432292" stop-color="#45389E"/>
<stop offset="1" stop-color="#1E50FF"/>
</linearGradient>
</defs>
</svg>
