<svg width="10" height="8" viewBox="0 0 10 8" fill="none" xmlns="http://www.w3.org/2000/svg">
<path d="M0.99998 0.666504H4.33331C4.51012 0.666504 4.67969 0.736742 4.80472 0.861766C4.92974 0.98679 4.99998 1.15636 4.99998 1.33317C4.99998 1.50998 4.92974 1.67955 4.80472 1.80458C4.67969 1.9296 4.51012 1.99984 4.33331 1.99984H0.99998C0.823169 1.99984 0.653599 1.9296 0.528575 1.80458C0.403551 1.67955 0.333313 1.50998 0.333313 1.33317C0.333313 1.15636 0.403551 0.98679 0.528575 0.861766C0.653599 0.736742 0.823169 0.666504 0.99998 0.666504V0.666504ZM5.66665 5.99984H8.99998C9.17679 5.99984 9.34636 6.07008 9.47138 6.1951C9.59641 6.32012 9.66665 6.48969 9.66665 6.6665C9.66665 6.84332 9.59641 7.01288 9.47138 7.13791C9.34636 7.26293 9.17679 7.33317 8.99998 7.33317H5.66665C5.48984 7.33317 5.32027 7.26293 5.19524 7.13791C5.07022 7.01288 4.99998 6.84332 4.99998 6.6665C4.99998 6.48969 5.07022 6.32012 5.19524 6.1951C5.32027 6.07008 5.48984 5.99984 5.66665 5.99984ZM0.99998 3.33317H8.99998C9.17679 3.33317 9.34636 3.40341 9.47138 3.52843C9.59641 3.65346 9.66665 3.82303 9.66665 3.99984C9.66665 4.17665 9.59641 4.34622 9.47138 4.47124C9.34636 4.59627 9.17679 4.6665 8.99998 4.6665H0.99998C0.823169 4.6665 0.653599 4.59627 0.528575 4.47124C0.403551 4.34622 0.333313 4.17665 0.333313 3.99984C0.333313 3.82303 0.403551 3.65346 0.528575 3.52843C0.653599 3.40341 0.823169 3.33317 0.99998 3.33317Z" fill="white"/>
</svg>
