<svg width="80" height="80" viewBox="0 0 80 80" fill="none" xmlns="http://www.w3.org/2000/svg">
<rect width="80" height="80" rx="8" fill="url(#paint0_linear_251_43)"/>
<path d="M57.0096 54.5827L52.2655 43.4234C53.9422 41.0102 54.9268 38.0816 54.9268 34.927C54.9268 26.6962 48.2306 20 39.9998 20C31.7692 20 25.073 26.6962 25.073 34.9269C25.073 38.0816 26.0575 41.01 27.7342 43.4232L22.9902 54.5826C22.7631 55.1167 22.8025 55.6295 23.0983 55.9894C23.3942 56.3493 23.8897 56.487 24.4576 56.3678L28.0807 55.6061C28.509 55.516 29.1107 55.7718 29.3431 56.1427L31.3085 59.2804C31.5976 59.7416 32.0052 60 32.4381 60C32.4667 60 32.4954 59.9988 32.5242 59.9966C32.9888 59.9598 33.3852 59.6326 33.6124 59.0984L37.6234 49.6638C38.3975 49.7882 39.1911 49.8538 39.9998 49.8538C40.8086 49.8538 41.6022 49.7882 42.3763 49.6638L46.3873 59.0984C46.6144 59.6325 47.0111 59.9599 47.4756 59.9966C47.5044 59.9988 47.5332 60 47.5618 60C47.9944 60 48.4022 59.7417 48.6912 59.2804L50.6565 56.1427C50.889 55.7717 51.4907 55.5157 51.9191 55.606L55.5421 56.3677C56.1101 56.487 56.6056 56.3492 56.9014 55.9893C57.1972 55.6295 57.2367 55.1167 57.0096 54.5827ZM26.5773 54.6231L24.196 55.1237C24.1751 55.1281 24.1562 55.1314 24.1392 55.1337C24.1449 55.1176 24.1516 55.0997 24.1601 55.0799L28.624 44.5796C29.1023 45.1425 29.6213 45.6696 30.1767 46.1562L26.5773 54.6231ZM28.0849 54.3261L31.2073 46.9814C31.8289 47.436 32.4865 47.8443 33.1756 48.2L30.2063 55.1844C29.6921 54.6084 28.8516 54.2665 28.0849 54.3261ZM32.4425 58.601C32.4342 58.6208 32.426 58.6381 32.4182 58.6534C32.4081 58.6395 32.3974 58.6237 32.386 58.6056L31.0442 56.4633L34.33 48.7341C34.9827 49.0031 35.6582 49.2273 36.3531 49.4025L32.4425 58.601ZM39.9998 48.5826C32.4701 48.5826 26.3442 42.4568 26.3442 34.927C26.3442 27.3973 32.4702 21.2712 39.9998 21.2712C47.5295 21.2712 53.6556 27.3972 53.6556 34.927C53.6556 42.4568 47.5297 48.5826 39.9998 48.5826ZM47.6137 58.6055C47.6024 58.6237 47.5916 58.6395 47.5815 58.6533C47.5737 58.6381 47.5656 58.6206 47.5572 58.6009L43.6467 49.4024C44.3416 49.2273 45.0172 49.003 45.6698 48.7339L48.9557 56.4631L47.6137 58.6055ZM49.7934 55.1844L46.8242 48.2C47.5133 47.8443 48.1708 47.436 48.7924 46.9814L51.9149 54.326C51.1481 54.2661 50.3077 54.6082 49.7934 55.1844ZM55.8036 55.1237L53.4224 54.6231L49.8228 46.1563C50.3784 45.6697 50.8973 45.1425 51.3756 44.5797L55.8395 55.08C55.848 55.0997 55.8547 55.1176 55.8603 55.1338C55.8435 55.1314 55.8246 55.1282 55.8036 55.1237Z" fill="url(#paint1_linear_251_43)"/>
<path d="M39.9998 26.8827C35.5642 26.8827 31.9556 30.4914 31.9556 34.927C31.9556 39.3626 35.5642 42.9712 39.9998 42.9712C44.4355 42.9712 48.0442 39.3626 48.0442 34.927C48.0442 30.4914 44.4355 26.8827 39.9998 26.8827ZM39.9998 41.7C36.2652 41.7 33.2268 38.6617 33.2268 34.927C33.2268 31.1924 36.2652 28.154 39.9998 28.154C43.7345 28.154 46.773 31.1924 46.773 34.927C46.773 38.6616 43.7346 41.7 39.9998 41.7Z" fill="url(#paint2_linear_251_43)"/>
<path d="M39.9997 23.5835C33.7448 23.5835 28.6562 28.6721 28.6562 34.9269C28.6562 41.1817 33.7448 46.2703 39.9997 46.2703C46.2545 46.2703 51.3432 41.1817 51.3432 34.9269C51.3432 28.6721 46.2545 23.5835 39.9997 23.5835ZM39.9997 44.999C34.4458 44.999 29.9274 40.4807 29.9274 34.9268C29.9274 29.373 34.4458 24.8546 39.9997 24.8546C45.5536 24.8546 50.072 29.3729 50.072 34.9268C50.072 40.4807 45.5536 44.999 39.9997 44.999Z" fill="url(#paint3_linear_251_43)"/>
<defs>
<linearGradient id="paint0_linear_251_43" x1="40" y1="0" x2="40" y2="80" gradientUnits="userSpaceOnUse">
<stop stop-color="white" stop-opacity="0.1"/>
<stop offset="1" stop-color="white" stop-opacity="0"/>
</linearGradient>
<linearGradient id="paint1_linear_251_43" x1="10.3519" y1="59.9876" x2="59.8031" y2="56.3676" gradientUnits="userSpaceOnUse">
<stop stop-color="#61285B"/>
<stop offset="0.432292" stop-color="#45389E"/>
<stop offset="1" stop-color="#1E50FF"/>
</linearGradient>
<linearGradient id="paint2_linear_251_43" x1="26.0979" y1="42.9662" x2="49.2414" y2="40.9911" gradientUnits="userSpaceOnUse">
<stop stop-color="#61285B"/>
<stop offset="0.432292" stop-color="#45389E"/>
<stop offset="1" stop-color="#1E50FF"/>
</linearGradient>
<linearGradient id="paint3_linear_251_43" x1="20.3962" y1="46.2632" x2="53.0314" y2="43.4781" gradientUnits="userSpaceOnUse">
<stop stop-color="#61285B"/>
<stop offset="0.432292" stop-color="#45389E"/>
<stop offset="1" stop-color="#1E50FF"/>
</linearGradient>
</defs>
</svg>
