<svg width="80" height="80" viewBox="0 0 80 80" fill="none" xmlns="http://www.w3.org/2000/svg">
<rect width="80" height="80" rx="8" fill="url(#paint0_linear_251_60)"/>
<path d="M22.2684 29.4484C24.2018 27.5146 26.7951 26.3835 29.5277 26.2821C32.2604 26.1807 34.9303 27.1165 37.0017 28.9017C39.0713 27.1195 41.7377 26.1847 44.4671 26.2846C47.1965 26.3845 49.7874 27.5116 51.7212 29.4404C53.655 31.3691 54.7889 33.9571 54.8959 36.6862C55.0029 39.4153 54.0752 42.0841 52.2984 44.1584L39.3567 57.1417C38.7621 57.7365 37.9647 58.0845 37.1243 58.1161C36.2838 58.1476 35.4626 57.8603 34.8251 57.3117L34.6417 57.1434L21.7017 44.1584C19.9259 42.0859 18.9977 39.4195 19.1028 36.6923C19.2078 33.9651 20.3384 31.3781 22.2684 29.4484ZM24.6251 31.805C23.2621 33.1683 22.4765 35.0041 22.4312 36.9313C22.3859 38.8585 23.0844 40.7292 24.3817 42.155L24.6251 42.4117L37.0001 54.7867L45.8384 45.945L39.9467 40.055L38.1801 41.8217C37.2425 42.7597 35.9708 43.2868 34.6446 43.2871C33.3184 43.2874 32.0464 42.7609 31.1084 41.8234C30.1704 40.8858 29.6433 39.6141 29.643 38.2879C29.6427 36.9617 30.1692 35.6897 31.1067 34.7517L34.6101 31.2467C33.2159 30.134 31.4708 29.5545 29.6879 29.6122C27.905 29.67 26.2011 30.3611 24.8817 31.5617L24.6251 31.805ZM38.7684 36.5184C39.081 36.2059 39.5048 36.0304 39.9467 36.0304C40.3887 36.0304 40.8125 36.2059 41.1251 36.5184L48.1951 43.5884L49.3751 42.4117C50.7608 41.0269 51.5498 39.1549 51.5731 37.196C51.5965 35.237 50.8524 33.3467 49.5001 31.9293C48.1478 30.5118 46.2945 29.6798 44.3366 29.6111C42.3788 29.5424 40.4718 30.2425 39.0234 31.5617L38.7684 31.805L33.4651 37.1084C33.1762 37.3971 33.0034 37.7818 32.9794 38.1895C32.9554 38.5972 33.082 38.9995 33.3351 39.32L33.4651 39.465C33.7538 39.7539 34.1385 39.9267 34.5462 39.9507C34.9539 39.9747 35.3562 39.8481 35.6767 39.595L35.8217 39.465L38.7684 36.5184Z" fill="url(#paint1_linear_251_60)"/>
<defs>
<linearGradient id="paint0_linear_251_60" x1="40" y1="0" x2="40" y2="80" gradientUnits="userSpaceOnUse">
<stop stop-color="white" stop-opacity="0.1"/>
<stop offset="1" stop-color="white" stop-opacity="0"/>
</linearGradient>
<linearGradient id="paint1_linear_251_60" x1="6.05689" y1="58.1085" x2="57.4705" y2="53.1744" gradientUnits="userSpaceOnUse">
<stop stop-color="#61285B"/>
<stop offset="0.432292" stop-color="#45389E"/>
<stop offset="1" stop-color="#1E50FF"/>
</linearGradient>
</defs>
</svg>
