<svg width="64" height="64" viewBox="0 0 64 64" fill="none" xmlns="http://www.w3.org/2000/svg">
<rect width="64" height="64" rx="8" fill="url(#paint0_linear_251_33)"/>
<path d="M38.6667 20.6667C38.6667 20.4899 38.5964 20.3204 38.4714 20.1953C38.3464 20.0703 38.1768 20.0001 38 20.0001H34.6667C32.9882 19.9165 31.3448 20.5006 30.0956 21.6248C28.8465 22.7491 28.093 24.3221 28 26.0001V29.6001H24.6667C24.4899 29.6001 24.3203 29.6703 24.1953 29.7953C24.0702 29.9204 24 30.0899 24 30.2667V33.7334C24 33.9102 24.0702 34.0798 24.1953 34.2048C24.3203 34.3298 24.4899 34.4001 24.6667 34.4001H28V43.3334C28 43.5102 28.0702 43.6798 28.1953 43.8048C28.3203 43.9298 28.4899 44.0001 28.6667 44.0001H32.6667C32.8435 44.0001 33.013 43.9298 33.1381 43.8048C33.2631 43.6798 33.3333 43.5102 33.3333 43.3334V34.4001H36.8267C36.9749 34.4022 37.1197 34.3548 37.238 34.2655C37.3563 34.1762 37.4415 34.0499 37.48 33.9067L38.44 30.4401C38.4665 30.3416 38.4701 30.2383 38.4504 30.1382C38.4308 30.0381 38.3884 29.9438 38.3265 29.8627C38.2647 29.7816 38.1851 29.7157 38.0938 29.6701C38.0025 29.6246 37.902 29.6006 37.8 29.6001H33.3333V26.0001C33.3665 25.67 33.5215 25.3642 33.768 25.1423C34.0146 24.9204 34.335 24.7984 34.6667 24.8001H38C38.1768 24.8001 38.3464 24.7298 38.4714 24.6048C38.5964 24.4798 38.6667 24.3102 38.6667 24.1334V20.6667Z" fill="url(#paint1_linear_251_33)"/>
<defs>
<linearGradient id="paint0_linear_251_33" x1="32" y1="0" x2="32" y2="64" gradientUnits="userSpaceOnUse">
<stop stop-color="white" stop-opacity="0.1"/>
<stop offset="1" stop-color="white" stop-opacity="0"/>
</linearGradient>
<linearGradient id="paint1_linear_251_33" x1="18.66" y1="43.9926" x2="39.8541" y2="42.8877" gradientUnits="userSpaceOnUse">
<stop stop-color="#61285B"/>
<stop offset="0.432292" stop-color="#45389E"/>
<stop offset="1" stop-color="#1E50FF"/>
</linearGradient>
</defs>
</svg>
