<svg width="80" height="80" viewBox="0 0 80 80" fill="none" xmlns="http://www.w3.org/2000/svg">
<rect width="80" height="80" rx="8" fill="url(#paint0_linear_251_54)"/>
<path d="M43.75 20C44.0815 20 44.3995 20.1317 44.6339 20.3661C44.8683 20.6005 45 20.9185 45 21.25C45 21.5815 45.1317 21.8995 45.3661 22.1339C45.6005 22.3683 45.9185 22.5 46.25 22.5C46.5815 22.5 46.8995 22.6317 47.1339 22.8661C47.3683 23.1005 47.5 23.4185 47.5 23.75V25C47.5 25.3315 47.3683 25.6495 47.1339 25.8839C46.8995 26.1183 46.5815 26.25 46.25 26.25H33.75C33.4185 26.25 33.1005 26.1183 32.8661 25.8839C32.6317 25.6495 32.5 25.3315 32.5 25V23.75C32.5 23.4185 32.6317 23.1005 32.8661 22.8661C33.1005 22.6317 33.4185 22.5 33.75 22.5C34.0815 22.5 34.3995 22.3683 34.6339 22.1339C34.8683 21.8995 35 21.5815 35 21.25C35 20.9185 35.1317 20.6005 35.3661 20.3661C35.6005 20.1317 35.9185 20 36.25 20H43.75Z" fill="url(#paint1_linear_251_54)"/>
<path d="M27.5 26.25C27.5 25.9185 27.6317 25.6005 27.8661 25.3661C28.1005 25.1317 28.4185 25 28.75 25H30C30.3315 25 30.6495 24.8683 30.8839 24.6339C31.1183 24.3995 31.25 24.0815 31.25 23.75C31.25 23.4185 31.1183 23.1005 30.8839 22.8661C30.6495 22.6317 30.3315 22.5 30 22.5H28.75C27.7554 22.5 26.8016 22.8951 26.0983 23.5983C25.3951 24.3016 25 25.2554 25 26.25V56.25C25 57.2446 25.3951 58.1984 26.0983 58.9017C26.8016 59.6049 27.7554 60 28.75 60H51.25C52.2446 60 53.1984 59.6049 53.9017 58.9017C54.6049 58.1984 55 57.2446 55 56.25V26.25C55 25.2554 54.6049 24.3016 53.9017 23.5983C53.1984 22.8951 52.2446 22.5 51.25 22.5H50C49.6685 22.5 49.3505 22.6317 49.1161 22.8661C48.8817 23.1005 48.75 23.4185 48.75 23.75C48.75 24.0815 48.8817 24.3995 49.1161 24.6339C49.3505 24.8683 49.6685 25 50 25H51.25C51.5815 25 51.8995 25.1317 52.1339 25.3661C52.3683 25.6005 52.5 25.9185 52.5 26.25V56.25C52.5 56.5815 52.3683 56.8995 52.1339 57.1339C51.8995 57.3683 51.5815 57.5 51.25 57.5H28.75C28.4185 57.5 28.1005 57.3683 27.8661 57.1339C27.6317 56.8995 27.5 56.5815 27.5 56.25V26.25Z" fill="url(#paint2_linear_251_54)"/>
<path d="M47.1351 39.635C47.3698 39.4003 47.5017 39.0819 47.5017 38.75C47.5017 38.4181 47.3698 38.0997 47.1351 37.865C46.9004 37.6303 46.5821 37.4984 46.2501 37.4984C45.9182 37.4984 45.5998 37.6303 45.3651 37.865L38.7501 44.4825L35.8851 41.615C35.6504 41.3803 35.3321 41.2484 35.0001 41.2484C34.6682 41.2484 34.3498 41.3803 34.1151 41.615C33.8804 41.8497 33.7485 42.1681 33.7485 42.5C33.7485 42.8319 33.8804 43.1503 34.1151 43.385L37.8651 47.135C37.9812 47.2514 38.1192 47.3438 38.271 47.4068C38.4229 47.4698 38.5857 47.5022 38.7501 47.5022C38.9145 47.5022 39.0773 47.4698 39.2292 47.4068C39.3811 47.3438 39.519 47.2514 39.6351 47.135L47.1351 39.635V39.635Z" fill="url(#paint3_linear_251_54)"/>
<defs>
<linearGradient id="paint0_linear_251_54" x1="40" y1="0" x2="40" y2="80" gradientUnits="userSpaceOnUse">
<stop stop-color="white" stop-opacity="0.1"/>
<stop offset="1" stop-color="white" stop-opacity="0"/>
</linearGradient>
<linearGradient id="paint1_linear_251_54" x1="27.0387" y1="26.2481" x2="47.8983" y2="21.9757" gradientUnits="userSpaceOnUse">
<stop stop-color="#61285B"/>
<stop offset="0.432292" stop-color="#45389E"/>
<stop offset="1" stop-color="#1E50FF"/>
</linearGradient>
<linearGradient id="paint2_linear_251_54" x1="14.0773" y1="59.9884" x2="57.345" y2="57.0344" gradientUnits="userSpaceOnUse">
<stop stop-color="#61285B"/>
<stop offset="0.432292" stop-color="#45389E"/>
<stop offset="1" stop-color="#1E50FF"/>
</linearGradient>
<linearGradient id="paint3_linear_251_54" x1="28.7412" y1="47.4991" x2="48.3986" y2="45.1928" gradientUnits="userSpaceOnUse">
<stop stop-color="#61285B"/>
<stop offset="0.432292" stop-color="#45389E"/>
<stop offset="1" stop-color="#1E50FF"/>
</linearGradient>
</defs>
</svg>
