<svg width="64" height="64" viewBox="0 0 64 64" fill="none" xmlns="http://www.w3.org/2000/svg">
<rect width="64" height="64" rx="8" fill="url(#paint0_linear_251_26)"/>
<path d="M31.9413 29.808V34.4094H38.3307C37.736 37.3334 35.2467 39.0134 31.9413 39.0134C30.0912 38.9879 28.3254 38.235 27.026 36.9177C25.7267 35.6003 24.9982 33.8244 24.9982 31.974C24.9982 30.1237 25.7267 28.3477 27.026 27.0304C28.3254 25.713 30.0912 24.9601 31.9413 24.9347C33.5416 24.9328 35.0926 25.4881 36.328 26.5054L39.7947 23.0387C38.3483 21.7664 36.6148 20.864 34.743 20.409C32.8712 19.9539 30.9169 19.9599 29.0479 20.4262C27.1789 20.8926 25.4509 21.8055 24.0123 23.0865C22.5737 24.3676 21.4673 25.9785 20.7883 27.7812C20.1092 29.5838 19.8776 31.5244 20.1134 33.4362C20.3492 35.348 21.0453 37.1741 22.1421 38.7577C23.2388 40.3414 24.7034 41.6352 26.4102 42.5283C28.117 43.4214 30.015 43.8871 31.9413 43.8854C37.8973 43.8854 43.3133 39.5533 43.3133 31.9733C43.3041 31.2435 43.2147 30.5169 43.0467 29.8067L31.9413 29.808V29.808Z" fill="url(#paint1_linear_251_26)"/>
<defs>
<linearGradient id="paint0_linear_251_26" x1="32" y1="0" x2="32" y2="64" gradientUnits="userSpaceOnUse">
<stop stop-color="white" stop-opacity="0.1"/>
<stop offset="1" stop-color="white" stop-opacity="0"/>
</linearGradient>
<linearGradient id="paint1_linear_251_26" x1="11.5444" y1="43.878" x2="45.0569" y2="41.0809" gradientUnits="userSpaceOnUse">
<stop stop-color="#61285B"/>
<stop offset="0.432292" stop-color="#45389E"/>
<stop offset="1" stop-color="#1E50FF"/>
</linearGradient>
</defs>
</svg>
