<svg width="64" height="64" viewBox="0 0 64 64" fill="none" xmlns="http://www.w3.org/2000/svg">
<rect width="64" height="64" rx="8" fill="url(#paint0_linear_251_36)"/>
<path d="M27.92 40.9401C29.6091 40.9507 31.2836 40.6258 32.8462 39.9843C34.4088 39.3428 35.8285 38.3974 37.0229 37.203C38.2174 36.0086 39.1627 34.5889 39.8043 33.0263C40.4458 31.4636 40.7706 29.7892 40.76 28.1001V27.5101C41.6356 26.8686 42.3935 26.0802 43 25.1801C42.1755 25.5407 41.3031 25.7798 40.41 25.8901C41.3569 25.3258 42.0674 24.4377 42.41 23.3901C41.5275 23.9195 40.5598 24.2917 39.55 24.4901C38.8699 23.7654 37.97 23.2851 36.9895 23.1235C36.0089 22.9618 35.0024 23.1278 34.1257 23.5957C33.249 24.0637 32.551 24.8075 32.1396 25.7121C31.7282 26.6168 31.6264 27.6318 31.85 28.6001C30.056 28.512 28.3007 28.0471 26.6984 27.2356C25.096 26.4241 23.6825 25.2841 22.55 23.8901C21.9789 24.8812 21.8058 26.0524 22.0658 27.1664C22.3257 28.2804 22.9992 29.254 23.95 29.8901C23.2486 29.863 22.5635 29.6712 21.95 29.3301V29.3801C21.9438 30.4159 22.2927 31.4226 22.9387 32.2323C23.5847 33.0421 24.4887 33.606 25.5 33.8301C24.8476 34.0055 24.1643 34.0329 23.5 33.9101C23.7928 34.7935 24.3517 35.5646 25.1 36.1179C25.8484 36.6711 26.7496 36.9792 27.68 37.0001C26.0892 38.2806 24.1121 38.9854 22.07 39.0001C21.712 38.9897 21.3547 38.9597 21 38.9101C23.067 40.227 25.4692 40.9213 27.92 40.9101" fill="url(#paint1_linear_251_36)"/>
<defs>
<linearGradient id="paint0_linear_251_36" x1="32" y1="0" x2="32" y2="64" gradientUnits="userSpaceOnUse">
<stop stop-color="white" stop-opacity="0.1"/>
<stop offset="1" stop-color="white" stop-opacity="0"/>
</linearGradient>
<linearGradient id="paint1_linear_251_36" x1="12.9901" y1="40.9348" x2="44.5198" y2="37.6235" gradientUnits="userSpaceOnUse">
<stop stop-color="#61285B"/>
<stop offset="0.432292" stop-color="#45389E"/>
<stop offset="1" stop-color="#1E50FF"/>
</linearGradient>
</defs>
</svg>
