<svg width="80" height="80" viewBox="0 0 80 80" fill="none" xmlns="http://www.w3.org/2000/svg">
<rect width="80" height="80" rx="8" fill="url(#paint0_linear_251_63)"/>
<path fill-rule="evenodd" clip-rule="evenodd" d="M39.9052 22.0833H40.0952C43.9435 22.0833 46.9585 22.0833 49.3118 22.3999C51.7185 22.7233 53.6185 23.3999 55.1102 24.8899C56.6018 26.3816 57.2768 28.2816 57.6002 30.6899C57.9168 33.0416 57.9168 36.0566 57.9168 39.9049V40.0949C57.9168 43.9433 57.9168 46.9583 57.6002 49.3116C57.2768 51.7183 56.6002 53.6183 55.1102 55.1099C53.6185 56.6016 51.7185 57.2766 49.3102 57.5999C46.9585 57.9166 43.9435 57.9166 40.0952 57.9166H39.9052C36.0568 57.9166 33.0418 57.9166 30.6885 57.5999C28.2818 57.2766 26.3818 56.5999 24.8902 55.1099C23.3985 53.6183 22.7235 51.7183 22.4002 49.3099C22.0835 46.9583 22.0835 43.9433 22.0835 40.0949V39.9049C22.0835 36.0566 22.0835 33.0416 22.4002 30.6883C22.7235 28.2816 23.4002 26.3816 24.8902 24.8899C26.3818 23.3983 28.2818 22.7233 30.6902 22.3999C33.0418 22.0833 36.0568 22.0833 39.9052 22.0833ZM31.0218 24.8766C28.8918 25.1633 27.6068 25.7099 26.6585 26.6583C25.7085 27.6083 25.1635 28.8916 24.8768 31.0233C24.5868 33.1899 24.5835 36.0366 24.5835 39.9999C24.5835 43.9633 24.5868 46.8099 24.8768 48.9766C25.1635 51.1083 25.7102 52.3933 26.6585 53.3433C27.6085 54.2916 28.8918 54.8366 31.0235 55.1233C33.1902 55.4133 36.0368 55.4166 40.0002 55.4166C43.9635 55.4166 46.8102 55.4133 48.9768 55.1233C51.1085 54.8366 52.3935 54.2899 53.3435 53.3416C54.2918 52.3916 54.8368 51.1083 55.1235 48.9766C55.4135 46.8099 55.4168 43.9633 55.4168 39.9999C55.4168 36.0366 55.4135 33.1899 55.1235 31.0233C54.8368 28.8916 54.2902 27.6066 53.3418 26.6566C52.3918 25.7083 51.1085 25.1633 48.9768 24.8766C46.8102 24.5866 43.9635 24.5833 40.0002 24.5833C36.0368 24.5833 33.1885 24.5866 31.0218 24.8766ZM40.0002 32.0833C40.3317 32.0833 40.6496 32.2149 40.884 32.4494C41.1185 32.6838 41.2502 33.0017 41.2502 33.3333V39.4833L45.0502 43.2833C45.173 43.3977 45.2715 43.5357 45.3398 43.689C45.4081 43.8424 45.4449 44.0079 45.4478 44.1757C45.4508 44.3436 45.4199 44.5103 45.357 44.6659C45.2942 44.8216 45.2006 44.963 45.0819 45.0816C44.9632 45.2003 44.8218 45.2939 44.6662 45.3568C44.5105 45.4197 44.3438 45.4505 44.176 45.4476C44.0081 45.4446 43.8426 45.4079 43.6893 45.3396C43.5359 45.2712 43.3979 45.1727 43.2835 45.0499L39.7268 41.4933C39.2435 41.0116 39.0035 40.7716 38.8768 40.4649C38.7502 40.1583 38.7502 39.8183 38.7502 39.1366V33.3333C38.7502 33.0017 38.8819 32.6838 39.1163 32.4494C39.3507 32.2149 39.6686 32.0833 40.0002 32.0833Z" fill="url(#paint1_linear_251_63)"/>
<defs>
<linearGradient id="paint0_linear_251_63" x1="40" y1="0" x2="40" y2="80" gradientUnits="userSpaceOnUse">
<stop stop-color="white" stop-opacity="0.1"/>
<stop offset="1" stop-color="white" stop-opacity="0"/>
</linearGradient>
<linearGradient id="paint1_linear_251_63" x1="9.03699" y1="57.9055" x2="60.5832" y2="53.5065" gradientUnits="userSpaceOnUse">
<stop stop-color="#61285B"/>
<stop offset="0.432292" stop-color="#45389E"/>
<stop offset="1" stop-color="#1E50FF"/>
</linearGradient>
</defs>
</svg>
