<svg width="80" height="80" viewBox="0 0 80 80" fill="none" xmlns="http://www.w3.org/2000/svg">
<rect width="80" height="80" rx="8" fill="url(#paint0_linear_251_51)"/>
<path d="M56.25 52.5C56.25 52.8315 56.1183 53.1495 55.8839 53.3839C55.6495 53.6183 55.3315 53.75 55 53.75H25C24.6685 53.75 24.3505 53.6183 24.1161 53.3839C23.8817 53.1495 23.75 52.8315 23.75 52.5V27.5C23.75 27.1685 23.8817 26.8505 24.1161 26.6161C24.3505 26.3817 24.6685 26.25 25 26.25C25.3315 26.25 25.6495 26.3817 25.8839 26.6161C26.1183 26.8505 26.25 27.1685 26.25 27.5V44.4844L34.1094 36.6094C34.3464 36.3746 34.6664 36.243 35 36.243C35.3336 36.243 35.6536 36.3746 35.8906 36.6094L40 40.7344L49.4844 31.25H46.25C45.9185 31.25 45.6005 31.1183 45.3661 30.8839C45.1317 30.6495 45 30.3315 45 30C45 29.6685 45.1317 29.3505 45.3661 29.1161C45.6005 28.8817 45.9185 28.75 46.25 28.75H52.5C52.8315 28.75 53.1495 28.8817 53.3839 29.1161C53.6183 29.3505 53.75 29.6685 53.75 30V36.25C53.75 36.5815 53.6183 36.8995 53.3839 37.1339C53.1495 37.3683 52.8315 37.5 52.5 37.5C52.1685 37.5 51.8505 37.3683 51.6161 37.1339C51.3817 36.8995 51.25 36.5815 51.25 36.25V33.0156L40.8906 43.3906C40.6536 43.6254 40.3336 43.757 40 43.757C39.6664 43.757 39.3464 43.6254 39.1094 43.3906L35 39.2656L26.25 48.0156V51.25H55C55.3315 51.25 55.6495 51.3817 55.8839 51.6161C56.1183 51.8505 56.25 52.1685 56.25 52.5Z" fill="url(#paint1_linear_251_51)"/>
<defs>
<linearGradient id="paint0_linear_251_51" x1="40" y1="0" x2="40" y2="80" gradientUnits="userSpaceOnUse">
<stop stop-color="white" stop-opacity="0.1"/>
<stop offset="1" stop-color="white" stop-opacity="0"/>
</linearGradient>
<linearGradient id="paint1_linear_251_51" x1="11.9171" y1="53.7415" x2="58.5346" y2="49.0398" gradientUnits="userSpaceOnUse">
<stop stop-color="#61285B"/>
<stop offset="0.432292" stop-color="#45389E"/>
<stop offset="1" stop-color="#1E50FF"/>
</linearGradient>
</defs>
</svg>
