<svg width="24" height="24" viewBox="0 0 24 24" fill="none" xmlns="http://www.w3.org/2000/svg">
<path d="M18.9897 9.49414C18.9897 5.64414 15.6897 2.59414 11.7397 3.04414C8.73971 3.39414 6.33971 5.79414 6.03971 8.79414C5.78971 11.0941 6.73971 13.1441 8.33971 14.4441C9.03971 15.0441 9.48971 15.8941 9.48971 16.8441V16.9941H15.4897V16.9441C15.4897 16.0441 15.8897 15.1441 16.5897 14.5441C18.0397 13.3441 18.9897 11.5441 18.9897 9.49414Z" fill="#FBC02D"/>
<path d="M15.7891 8.59404L14.2891 7.59404C14.1391 7.49404 13.8891 7.49404 13.7391 7.59404L12.4891 8.39404L11.2891 7.59404C11.1391 7.49404 10.8891 7.49404 10.7391 7.59404L9.23906 8.59404C9.13906 8.69404 9.03906 8.79404 9.03906 8.94404C9.03906 9.09404 9.03906 9.24404 9.13906 9.34404L11.0391 11.694V16.994H12.0391V11.494C12.0391 11.394 11.9891 11.294 11.9391 11.194L10.2891 9.14404L11.0391 8.64404L12.2391 9.44404C12.3891 9.54404 12.6391 9.54404 12.7891 9.44404L13.9891 8.64404L14.7391 9.14404L13.0891 11.194C13.0391 11.294 12.9891 11.394 12.9891 11.494V16.994H13.9891V11.694L15.8891 9.34404C15.9891 9.24404 16.0391 9.09404 15.9891 8.94404C15.9391 8.79404 15.8891 8.64404 15.7891 8.59404Z" fill="#FFF59D"/>
<path d="M12.4893 21.9941C13.3177 21.9941 13.9893 21.3226 13.9893 20.4941C13.9893 19.6657 13.3177 18.9941 12.4893 18.9941C11.6608 18.9941 10.9893 19.6657 10.9893 20.4941C10.9893 21.3226 11.6608 21.9941 12.4893 21.9941Z" fill="#5C6BC0"/>
<path d="M13.4893 20.9941H11.4893C10.3893 20.9941 9.48926 20.0941 9.48926 18.9941V16.4941H15.4893V18.9941C15.4893 20.0941 14.5893 20.9941 13.4893 20.9941Z" fill="#9FA8DA"/>
<path d="M15.4893 18.9941L9.68926 19.7941C9.83926 20.1441 10.1393 20.4941 10.4893 20.6941L15.1893 20.0441C15.3893 19.7441 15.4893 19.3941 15.4893 18.9941ZM9.48926 17.8441V18.8441L15.4893 17.9941V16.9941L9.48926 17.8441Z" fill="#5C6BC0"/>
</svg>
