<svg width="140" height="140" viewBox="0 0 140 140" fill="none" xmlns="http://www.w3.org/2000/svg">
<g clip-path="url(#clip0_251_163)">
<path d="M92.893 44.0385L84.0293 52.8052L70 35.3848C78.7779 35.3848 86.791 38.654 92.893 44.0385Z" fill="#A0DDDF"/>
<path d="M84.0295 87.1948L92.8933 95.9615C86.7912 101.346 78.7779 104.615 70 104.615L84.0295 87.1948Z" fill="#20AAB0"/>
<path d="M92.893 44.0385C100.081 50.3811 104.616 59.6602 104.616 70L84.231 73.077L84.0298 49.7284C87.2774 48.2858 90.2631 46.3594 92.893 44.0385Z" fill="#71CCCE"/>
<path d="M84.2306 70H104.615C104.615 80.3398 100.08 89.6189 92.8926 95.9615C90.2626 93.6406 87.2772 91.7142 84.0288 90.2716L84.2306 70Z" fill="#41BBBE"/>
<path d="M47.1069 44.0385L55.9707 52.8052L69.9999 35.3848C61.2221 35.3848 53.209 38.654 47.1069 44.0385Z" fill="#20AAB0"/>
<path d="M55.9707 87.1948L47.1069 95.9615C53.209 101.346 61.2223 104.615 70.0002 104.615L55.9707 87.1948Z" fill="#06484A"/>
<path d="M47.1068 44.0385C39.9192 50.3811 35.3843 59.6602 35.3843 70L55.7688 73.077L55.97 49.7284C52.7224 48.2858 49.7367 46.3594 47.1068 44.0385Z" fill="#14858A"/>
<path d="M55.7693 70H35.3848C35.3848 80.3398 39.9195 89.6189 47.1073 95.9615C49.7372 93.6406 52.7226 91.7142 55.9711 90.2716L55.7693 70Z" fill="#086063"/>
<path d="M55.9706 49.7284C53.9089 55.4266 52.6924 62.4287 52.6924 70L73.0769 76.1537V52.6922L55.9706 49.7284Z" fill="#20AAB0"/>
<path d="M52.6924 70C52.6924 77.5715 53.9086 84.5739 55.9706 90.2716L73.0771 87.3075V70H52.6924Z" fill="#14858A"/>
<path d="M55.9707 90.2715C59.115 98.9608 64.2274 104.615 70.0002 104.615L73.0772 96.2563L70.0002 87.3077C65.0054 87.3077 60.259 88.3673 55.9707 90.2715Z" fill="#086063"/>
<path d="M55.9707 49.7285C60.259 51.6327 65.0054 52.6925 70.0002 52.6925L73.0772 44.0388L70.0002 35.3848C64.2274 35.3848 59.1152 41.0392 55.9707 49.7285Z" fill="#41BBBE"/>
<path d="M84.0295 49.7285L70 52.6923V70.0001L78.6538 73.0771L87.3078 70.0001C87.3078 62.4286 86.0915 55.4261 84.0295 49.7285Z" fill="#41BBBE"/>
<path d="M70 70V87.3078L84.0295 90.2718C86.0913 84.5737 87.3078 77.5715 87.3078 70.0003H70V70Z" fill="#20AAB0"/>
<path d="M84.0295 90.2716C79.7412 88.3673 74.9949 87.3075 70 87.3075V104.615C75.7728 104.615 80.8853 98.9609 84.0295 90.2716Z" fill="#14858A"/>
<path d="M70 52.6922C74.9949 52.6922 79.7412 51.6326 84.0295 49.7281C80.885 41.0388 75.7728 35.3844 70 35.3844V52.6922Z" fill="#71CCCE"/>
<path d="M113.846 67.6921C112.572 67.6921 111.539 68.7252 111.539 70C111.539 71.2747 112.572 72.3078 113.846 72.3078H132.308V67.6921H113.846Z" fill="url(#paint0_linear_251_163)"/>
<path d="M26.1538 67.6921H7.69238V72.3075H26.1538C27.4283 72.3075 28.4616 71.2744 28.4616 69.9997C28.4616 68.7252 27.4283 67.6921 26.1538 67.6921Z" fill="url(#paint1_linear_251_163)"/>
<path d="M132.308 77.6923C136.556 77.6923 140 74.2483 140 70C140 65.7516 136.556 62.3076 132.308 62.3076C128.059 62.3076 124.615 65.7516 124.615 70C124.615 74.2483 128.059 77.6923 132.308 77.6923Z" fill="url(#paint2_linear_251_163)"/>
<path d="M7.69234 77.6923C11.9407 77.6923 15.3847 74.2483 15.3847 70C15.3847 65.7516 11.9407 62.3076 7.69234 62.3076C3.44398 62.3076 0 65.7516 0 70C0 74.2483 3.44398 77.6923 7.69234 77.6923Z" fill="url(#paint3_linear_251_163)"/>
<path d="M99.3717 37.3644C98.4705 38.2656 98.4705 39.7266 99.3717 40.6281C100.273 41.5294 101.734 41.5294 102.635 40.6281L115.69 27.5739L112.426 24.3102L99.3717 37.3644Z" fill="url(#paint4_linear_251_163)"/>
<path d="M37.3642 99.372L24.3101 112.426L27.5738 115.69L40.628 102.636C41.5292 101.735 41.5292 100.274 40.628 99.372C39.7262 98.4708 38.2655 98.471 37.3642 99.372Z" fill="url(#paint5_linear_251_163)"/>
<path d="M114.058 33.634C118.306 33.634 121.75 30.19 121.75 25.9416C121.75 21.6932 118.306 18.2493 114.058 18.2493C109.81 18.2493 106.366 21.6932 106.366 25.9416C106.366 30.19 109.81 33.634 114.058 33.634Z" fill="#E4769A"/>
<path d="M25.9414 121.751C30.1897 121.751 33.6337 118.307 33.6337 114.058C33.6337 109.81 30.1897 106.366 25.9414 106.366C21.693 106.366 18.249 109.81 18.249 114.058C18.249 118.307 21.693 121.751 25.9414 121.751Z" fill="#E4769A"/>
<path d="M102.635 99.3721C101.734 98.4709 100.273 98.4709 99.3717 99.3721C98.4705 100.273 98.4705 101.735 99.3717 102.636L112.426 115.69L115.69 112.426L102.635 99.3721Z" fill="url(#paint6_linear_251_163)"/>
<path d="M40.6277 37.3644L27.5733 24.3102L24.3101 27.5734L37.3642 40.6276C38.2655 41.5288 39.7265 41.5288 40.628 40.6276C41.5292 39.7263 41.5287 38.2656 40.6277 37.3644Z" fill="url(#paint7_linear_251_163)"/>
<path d="M114.058 121.751C118.306 121.751 121.75 118.307 121.75 114.058C121.75 109.81 118.306 106.366 114.058 106.366C109.81 106.366 106.366 109.81 106.366 114.058C106.366 118.307 109.81 121.751 114.058 121.751Z" fill="#E4769A"/>
<path d="M25.9414 33.634C30.1897 33.634 33.6337 30.19 33.6337 25.9416C33.6337 21.6932 30.1897 18.2493 25.9414 18.2493C21.693 18.2493 18.249 21.6932 18.249 25.9416C18.249 30.19 21.693 33.634 25.9414 33.634Z" fill="#E4769A"/>
<path d="M67.6924 26.1538C67.6924 27.4283 68.7254 28.4616 70.0002 28.4616C71.275 28.4616 72.308 27.4283 72.308 26.1538V7.69238H67.6924V26.1538Z" fill="url(#paint8_linear_251_163)"/>
<path d="M67.6924 113.846V132.308H72.3077V113.846C72.3077 112.572 71.2747 111.538 69.9999 111.538C68.7254 111.538 67.6924 112.572 67.6924 113.846Z" fill="url(#paint9_linear_251_163)"/>
<path d="M70 15.3847C74.2483 15.3847 77.6923 11.9407 77.6923 7.69234C77.6923 3.44398 74.2483 0 70 0C65.7516 0 62.3076 3.44398 62.3076 7.69234C62.3076 11.9407 65.7516 15.3847 70 15.3847Z" fill="url(#paint10_linear_251_163)"/>
<path d="M70 140C74.2483 140 77.6923 136.556 77.6923 132.308C77.6923 128.059 74.2483 124.615 70 124.615C65.7516 124.615 62.3076 128.059 62.3076 132.308C62.3076 136.556 65.7516 140 70 140Z" fill="url(#paint11_linear_251_163)"/>
</g>
<defs>
<linearGradient id="paint0_linear_251_163" x1="103.977" y1="72.3063" x2="130.204" y2="62.2348" gradientUnits="userSpaceOnUse">
<stop stop-color="#61285B"/>
<stop offset="0.432292" stop-color="#45389E"/>
<stop offset="1" stop-color="#1E50FF"/>
</linearGradient>
<linearGradient id="paint1_linear_251_163" x1="0.130548" y1="72.3061" x2="26.3567" y2="62.2343" gradientUnits="userSpaceOnUse">
<stop stop-color="#61285B"/>
<stop offset="0.432292" stop-color="#45389E"/>
<stop offset="1" stop-color="#1E50FF"/>
</linearGradient>
<linearGradient id="paint2_linear_251_163" x1="119.014" y1="77.6875" x2="141.145" y2="75.7989" gradientUnits="userSpaceOnUse">
<stop stop-color="#61285B"/>
<stop offset="0.432292" stop-color="#45389E"/>
<stop offset="1" stop-color="#1E50FF"/>
</linearGradient>
<linearGradient id="paint3_linear_251_163" x1="-5.60139" y1="77.6875" x2="16.5295" y2="75.7989" gradientUnits="userSpaceOnUse">
<stop stop-color="#61285B"/>
<stop offset="0.432292" stop-color="#45389E"/>
<stop offset="1" stop-color="#1E50FF"/>
</linearGradient>
<linearGradient id="paint4_linear_251_163" x1="92.5085" y1="41.2988" x2="116.954" y2="39.2126" gradientUnits="userSpaceOnUse">
<stop stop-color="#61285B"/>
<stop offset="0.432292" stop-color="#45389E"/>
<stop offset="1" stop-color="#1E50FF"/>
</linearGradient>
<linearGradient id="paint5_linear_251_163" x1="18.1228" y1="115.685" x2="42.5685" y2="113.598" gradientUnits="userSpaceOnUse">
<stop stop-color="#61285B"/>
<stop offset="0.432292" stop-color="#45389E"/>
<stop offset="1" stop-color="#1E50FF"/>
</linearGradient>
<linearGradient id="paint6_linear_251_163" x1="92.5085" y1="115.685" x2="116.954" y2="113.599" gradientUnits="userSpaceOnUse">
<stop stop-color="#61285B"/>
<stop offset="0.432292" stop-color="#45389E"/>
<stop offset="1" stop-color="#1E50FF"/>
</linearGradient>
<linearGradient id="paint7_linear_251_163" x1="18.1229" y1="41.2982" x2="42.5682" y2="39.212" gradientUnits="userSpaceOnUse">
<stop stop-color="#61285B"/>
<stop offset="0.432292" stop-color="#45389E"/>
<stop offset="1" stop-color="#1E50FF"/>
</linearGradient>
<linearGradient id="paint8_linear_251_163" x1="66.0119" y1="28.4551" x2="72.6974" y2="28.3284" gradientUnits="userSpaceOnUse">
<stop stop-color="#61285B"/>
<stop offset="0.432292" stop-color="#45389E"/>
<stop offset="1" stop-color="#1E50FF"/>
</linearGradient>
<linearGradient id="paint9_linear_251_163" x1="66.012" y1="132.301" x2="72.6971" y2="132.175" gradientUnits="userSpaceOnUse">
<stop stop-color="#61285B"/>
<stop offset="0.432292" stop-color="#45389E"/>
<stop offset="1" stop-color="#1E50FF"/>
</linearGradient>
<linearGradient id="paint10_linear_251_163" x1="56.7062" y1="15.3799" x2="78.8371" y2="13.4913" gradientUnits="userSpaceOnUse">
<stop stop-color="#61285B"/>
<stop offset="0.432292" stop-color="#45389E"/>
<stop offset="1" stop-color="#1E50FF"/>
</linearGradient>
<linearGradient id="paint11_linear_251_163" x1="56.7062" y1="139.995" x2="78.8371" y2="138.107" gradientUnits="userSpaceOnUse">
<stop stop-color="#61285B"/>
<stop offset="0.432292" stop-color="#45389E"/>
<stop offset="1" stop-color="#1E50FF"/>
</linearGradient>
<clipPath id="clip0_251_163">
<rect width="140" height="140" fill="white"/>
</clipPath>
</defs>
</svg>
