<?xml version="1.0" encoding="UTF-8"?>
<svg xmlns="http://www.w3.org/2000/svg" xmlns:xlink="http://www.w3.org/1999/xlink" width="150px" height="px" viewBox="0 0 150 150" version="1.1">
<defs>
<clipPath id="clip1">
  <path d="M 0.1875 55 L 149.855469 55 L 149.855469 95 L 0.1875 95 Z M 0.1875 55 "/>
</clipPath>
</defs>
<g id="surface1">
<g clip-path="url(#clip1)" clip-rule="nonzero">
<path style=" stroke:none;fill-rule:nonzero;fill:rgb(25.098039%,23.921569%,23.921569%);fill-opacity:1;" d="M 109.996094 58.140625 C 109.996094 56.582031 111.289062 55.320312 112.886719 55.320312 L 146.21875 55.320312 C 147.8125 55.320312 149.109375 56.582031 149.109375 58.140625 L 149.109375 91.863281 C 149.109375 93.417969 147.8125 94.683594 146.21875 94.683594 L 112.886719 94.683594 C 111.289062 94.683594 109.996094 93.417969 109.996094 91.863281 Z M 0.5 88.292969 L 16.824219 88.292969 L 16.824219 82.933594 L 6.410156 82.933594 L 6.410156 62.484375 L 0.5 62.484375 Z M 25.089844 88.292969 L 25.089844 70.515625 L 19.183594 70.515625 L 19.183594 88.292969 Z M 22.136719 68.089844 C 24.195312 68.089844 25.476562 66.726562 25.476562 65.019531 C 25.441406 63.277344 24.195312 61.949219 22.175781 61.949219 C 20.15625 61.949219 18.832031 63.277344 18.832031 65.019531 C 18.832031 66.726562 20.117188 68.089844 22.097656 68.089844 Z M 27.832031 88.292969 L 33.742188 88.292969 L 33.742188 78.363281 C 33.742188 77.835938 33.777344 77.304688 33.933594 76.925781 C 34.363281 75.863281 35.332031 74.761719 36.964844 74.761719 C 39.105469 74.761719 39.960938 76.394531 39.960938 78.78125 L 39.960938 88.289062 L 45.867188 88.289062 L 45.867188 78.101562 C 45.867188 72.640625 42.953125 70.101562 39.0625 70.101562 C 35.878906 70.101562 34.476562 71.882812 33.699219 73.09375 L 33.742188 73.09375 L 33.742188 70.515625 L 27.832031 70.515625 C 27.910156 72.183594 27.832031 88.292969 27.832031 88.292969 Z M 54.199219 62.484375 L 48.292969 62.484375 L 48.292969 88.292969 L 54.199219 88.292969 L 54.199219 82.527344 L 55.675781 80.667969 L 60.304688 88.292969 L 67.570312 88.292969 L 59.796875 77.257812 L 66.597656 69.75 L 59.488281 69.75 C 59.488281 69.75 54.628906 76.46875 54.199219 77.265625 Z M 54.199219 62.484375 "/>
</g>
<path style=" stroke:none;fill-rule:nonzero;fill:rgb(25.098039%,23.921569%,23.921569%);fill-opacity:1;" d="M 83.367188 80.878906 C 83.445312 80.421875 83.5625 79.546875 83.5625 78.554688 C 83.5625 73.960938 81.230469 69.296875 75.089844 69.296875 C 68.523438 69.296875 65.488281 74.492188 65.488281 79.203125 C 65.488281 85.03125 69.183594 88.667969 75.632812 88.667969 C 78.199219 88.667969 80.570312 88.289062 82.515625 87.492188 L 81.738281 83.59375 C 80.140625 84.121094 78.511719 84.386719 76.488281 84.386719 C 73.730469 84.386719 71.320312 83.253906 71.125 80.839844 L 83.367188 80.875 Z M 71.085938 76.878906 C 71.242188 75.363281 72.253906 73.125 74.78125 73.125 C 77.460938 73.125 78.085938 75.515625 78.085938 76.878906 Z M 98.144531 62.484375 L 98.144531 71.417969 L 98.066406 71.417969 C 97.210938 70.167969 95.425781 69.335938 93.054688 69.335938 C 88.507812 69.335938 84.503906 72.972656 84.542969 79.191406 C 84.542969 84.953125 88.15625 88.707031 92.664062 88.707031 C 95.113281 88.707031 97.445312 87.644531 98.613281 85.597656 L 98.726562 85.597656 L 98.960938 88.292969 L 104.207031 88.292969 C 104.132812 87.039062 104.054688 84.878906 104.054688 82.753906 L 104.054688 62.484375 Z M 98.144531 80.0625 C 98.144531 80.519531 98.105469 80.972656 98.027344 81.351562 C 97.679688 82.984375 96.28125 84.121094 94.570312 84.121094 C 92.121094 84.121094 90.527344 82.148438 90.527344 79.039062 C 90.527344 76.121094 91.890625 73.769531 94.609375 73.769531 C 96.4375 73.769531 97.71875 75.019531 98.066406 76.574219 C 98.144531 76.917969 98.144531 77.296875 98.144531 77.636719 Z M 98.144531 80.0625 "/>
<path style=" stroke:none;fill-rule:nonzero;fill:rgb(14.117647%,14.117647%,14.117647%);fill-opacity:1;" d="M 121.851562 88.269531 L 121.851562 70.496094 L 115.945312 70.496094 L 115.945312 88.269531 Z M 118.898438 68.070312 C 120.957031 68.070312 122.242188 66.703125 122.242188 65 C 122.203125 63.253906 120.957031 61.929688 118.9375 61.929688 C 116.914062 61.929688 115.59375 63.253906 115.59375 65 C 115.59375 66.703125 116.875 68.070312 118.859375 68.070312 Z M 125.121094 88.269531 L 131.027344 88.269531 L 131.027344 78.34375 C 131.027344 77.816406 131.066406 77.28125 131.222656 76.902344 C 131.648438 75.84375 132.621094 74.742188 134.253906 74.742188 C 136.390625 74.742188 137.246094 76.371094 137.246094 78.761719 L 137.246094 88.269531 L 143.152344 88.269531 L 143.152344 78.078125 C 143.152344 72.621094 140.238281 70.078125 136.355469 70.078125 C 133.167969 70.078125 131.765625 71.859375 130.992188 73.074219 L 131.03125 73.074219 L 131.03125 70.496094 L 125.121094 70.496094 C 125.199219 72.164062 125.121094 88.269531 125.121094 88.269531 Z M 125.121094 88.269531 "/>
</g>
</svg>
