<svg width="119" height="32" viewBox="0 0 119 32" fill="none" xmlns="http://www.w3.org/2000/svg">
<g clip-path="url(#clip0_251_225)">
<path d="M87.2622 2.62416C87.2622 1.38937 88.2894 0.387207 89.5557 0.387207H115.999C117.266 0.387207 118.293 1.38937 118.293 2.62416V29.3779C118.293 30.6131 117.266 31.6145 115.999 31.6145H89.5557C88.2894 31.6145 87.2622 30.6131 87.2622 29.3783V2.62416Z" fill="#C2C2C2"/>
<path d="M0.398148 26.5445H13.3481V22.2926H5.08543V6.07242H0.398148V26.5445ZM19.9045 26.5445V12.4438H15.2177V26.5445H19.9045ZM17.5615 10.5189C19.1956 10.5189 20.2129 9.43604 20.2129 8.08207C20.1826 6.69862 19.1956 5.64648 17.5926 5.64648C15.9893 5.64648 14.9408 6.69902 14.9408 8.08207C14.9408 9.43604 15.9581 10.5189 17.5308 10.5189H17.5615V10.5189ZM22.0805 26.5445H26.7674V18.6697C26.7674 18.2483 26.7977 17.8269 26.9218 17.5267C27.26 16.6846 28.0312 15.8123 29.3262 15.8123C31.0226 15.8123 31.7012 17.1057 31.7012 19.0002V26.5441H36.3872V18.4592C36.3872 14.1278 34.0749 12.1124 30.991 12.1124C28.4629 12.1124 27.3526 13.5258 26.7358 14.4886H26.7674V12.4438H22.0805C22.1423 13.767 22.0805 26.5445 22.0805 26.5445V26.5445ZM42.9994 6.07242H38.3125V26.5445H42.9994V21.9727L44.1707 20.498L47.8403 26.5445H53.6059L47.4397 17.7912L52.8351 11.8364H47.1932C47.1932 11.8364 43.3389 17.1638 42.9994 17.7962V6.07242Z" fill="#C2C2C2"/>
<path d="M66.1393 20.6624C66.2012 20.3003 66.2937 19.6057 66.2937 18.8202C66.2937 15.1752 64.4434 11.4745 59.5718 11.4745C54.3607 11.4745 51.9554 15.5958 51.9554 19.3338C51.9554 23.9568 54.8849 26.8437 60.003 26.8437C62.0385 26.8437 63.9187 26.5439 65.4611 25.912L64.8443 22.8166C63.5796 23.236 62.2846 23.4461 60.6817 23.4461C58.4926 23.4461 56.5813 22.5471 56.4269 20.6321L66.1393 20.6615V20.6624V20.6624ZM56.3962 17.4916C56.5194 16.2884 57.3217 14.513 59.3257 14.513C61.4529 14.513 61.9468 16.4084 61.9468 17.4916H56.3966H56.3962ZM77.8622 6.07219V13.159H77.8004C77.1218 12.1671 75.7035 11.5053 73.8237 11.5053C70.2156 11.5053 67.0399 14.3926 67.0702 19.3252C67.0702 23.8974 69.9383 26.8752 73.5145 26.8752C75.4574 26.8752 77.3069 26.0324 78.2325 24.4081H78.3246L78.5101 26.5443H82.6724C82.611 25.5516 82.5487 23.8372 82.5487 22.1527V6.07178H77.8618L77.8622 6.07219ZM77.8622 20.0173C77.8622 20.3777 77.8315 20.7394 77.7693 21.0391C77.4928 22.3333 76.3825 23.2347 75.0257 23.2347C73.0836 23.2347 71.8189 21.6711 71.8189 19.2048C71.8189 16.8892 72.8989 15.0241 75.0568 15.0241C76.5058 15.0241 77.5231 16.0164 77.8008 17.2492C77.8622 17.5207 77.8622 17.8217 77.8622 18.092V20.0169V20.0173Z" fill="#C2C2C2"/>
<path d="M96.6687 26.5274V12.4267H91.9819V26.5274H96.6691H96.6687ZM94.3261 10.5018C95.9602 10.5018 96.9775 9.41895 96.9775 8.0658C96.9468 6.68193 95.9602 5.62939 94.3572 5.62939C92.753 5.62939 91.7054 6.68193 91.7054 8.0658C91.7054 9.41895 92.7223 10.5018 94.2954 10.5018H94.3257H94.3261ZM99.2628 26.5274H103.949V18.6539C103.949 18.2328 103.98 17.811 104.104 17.5104C104.442 16.668 105.214 15.796 106.509 15.796C108.204 15.796 108.883 17.089 108.883 18.9848V26.5274H113.569V18.4425C113.569 14.1116 111.257 12.0962 108.174 12.0962C105.646 12.0962 104.535 13.5091 103.919 14.4716H103.95V12.4271H99.2632C99.3242 13.7499 99.2628 26.5278 99.2628 26.5278V26.5274Z" fill="#242424"/>
</g>
<defs>
<clipPath id="clip0_251_225">
<rect width="118.737" height="32" fill="white" transform="translate(0.14856)"/>
</clipPath>
</defs>
</svg>
