<?xml version="1.0" encoding="UTF-8"?>
<svg xmlns="http://www.w3.org/2000/svg" xmlns:xlink="http://www.w3.org/1999/xlink" width="40px" height="40px" viewBox="0 0 40 40" version="1.1">
<g id="surface1">
<path style=" stroke:none;fill-rule:nonzero;fill:rgb(14.117647%,15.294118%,15.294118%);fill-opacity:1;" d="M 19.375 1.25 L 19.375 3.769531 C 14.296875 4.066406 10.171875 7.9375 9.476562 12.898438 C 9.085938 12.648438 8.625 12.5 8.125 12.5 C 6.75 12.5 5.625 13.625 5.625 15 C 5.625 16.15625 6.421875 17.140625 7.492188 17.421875 L 7.742188 19.78125 C 7.722656 24.765625 7.945312 30.382812 7.554688 35.585938 C 7.335938 35.015625 7.316406 34.640625 7.203125 33.953125 L 6.246094 34.125 C 6.417969 35.195312 6.636719 36.234375 7.273438 37.164062 C 9.140625 36.4375 9.632812 32.40625 10.132812 29.828125 L 8.5 28.921875 L 10.398438 28.375 C 10.578125 27.257812 10.695312 26.554688 10.757812 25.84375 L 9.234375 24.65625 L 10.8125 24.671875 C 10.8125 24.367188 10.8125 24.039062 10.804688 23.664062 C 10.773438 22.648438 9.882812 20.382812 8.984375 19.898438 L 8.726562 17.421875 C 9.085938 17.335938 9.40625 17.171875 9.6875 16.945312 C 10.796875 21.375 14.679688 24.710938 19.375 24.984375 L 19.375 25.734375 C 18.648438 25.992188 18.125 26.6875 18.125 27.5 C 18.125 28.40625 18.773438 29.164062 19.632812 29.335938 C 18.65625 29.617188 17.664062 30.835938 17.773438 31.382812 C 18.421875 34.632812 18.9375 38.304688 20.179688 38.65625 C 21.710938 37.117188 21.867188 34.023438 22.171875 31.070312 C 22.210938 30.695312 21.265625 29.601562 20.375 29.335938 C 21.226562 29.15625 21.875 28.398438 21.875 27.5 C 21.875 26.6875 21.351562 25.992188 20.625 25.734375 L 20.625 24.984375 C 25.320312 24.710938 29.203125 21.375 30.3125 16.945312 C 30.617188 17.1875 30.976562 17.367188 31.367188 17.445312 L 31.625 20.734375 C 30.71875 21.15625 29.929688 22.34375 29.898438 23.242188 C 29.851562 24.976562 29.96875 26.867188 30.3125 28.726562 L 32.125 29.523438 L 30.46875 29.5 C 30.5 29.648438 30.53125 29.789062 30.570312 29.9375 L 31.164062 30.578125 L 30.765625 30.6875 C 31.320312 32.664062 32.15625 34.515625 33.335938 35.984375 C 33.765625 35.164062 34.101562 34.257812 34.359375 33.296875 L 33.40625 33.148438 C 33.359375 33.757812 33.304688 34.367188 33.242188 34.96875 C 32.851562 30.398438 32.882812 25.03125 32.867188 20.625 L 32.609375 17.390625 C 33.632812 17.070312 34.375 16.117188 34.375 15 C 34.375 13.625 33.25 12.5 31.875 12.5 C 31.375 12.5 30.914062 12.648438 30.523438 12.898438 C 29.828125 7.9375 25.703125 4.066406 20.625 3.769531 L 20.625 1.25 Z M 20 5 C 25.1875 5 29.375 9.1875 29.375 14.375 C 29.375 19.5625 25.1875 23.75 20 23.75 C 14.8125 23.75 10.625 19.5625 10.625 14.375 C 10.625 9.1875 14.8125 5 20 5 Z M 19.625 6.171875 C 19.09375 6.195312 18.578125 6.269531 18.078125 6.390625 C 17.789062 7.003906 17.59375 7.644531 17.484375 8.296875 C 16.9375 7.914062 16.34375 7.601562 15.710938 7.371094 C 15.265625 7.644531 14.851562 7.960938 14.460938 8.304688 C 15.578125 8.546875 16.578125 9.078125 17.382812 9.820312 C 17.414062 10.648438 17.585938 11.476562 17.890625 12.265625 C 17.101562 11.960938 16.273438 11.789062 15.445312 11.757812 C 14.703125 10.953125 14.171875 9.953125 13.929688 8.84375 C 13.578125 9.226562 13.265625 9.640625 12.992188 10.085938 C 13.226562 10.71875 13.546875 11.3125 13.929688 11.859375 C 13.273438 11.96875 12.625 12.164062 12.015625 12.453125 C 11.898438 12.953125 11.820312 13.46875 11.796875 14 C 12.75 13.382812 13.835938 13.046875 14.929688 13.007812 C 15.539062 13.570312 16.242188 14.039062 17.015625 14.375 C 16.242188 14.710938 15.539062 15.179688 14.929688 15.75 C 13.835938 15.703125 12.75 15.375 11.796875 14.757812 C 11.820312 15.289062 11.898438 15.796875 12.015625 16.296875 C 12.625 16.585938 13.273438 16.78125 13.929688 16.890625 C 13.546875 17.4375 13.226562 18.03125 12.992188 18.664062 C 13.265625 19.109375 13.578125 19.523438 13.929688 19.90625 C 14.171875 18.796875 14.703125 17.796875 15.445312 16.992188 C 16.273438 16.960938 17.101562 16.789062 17.890625 16.484375 C 17.585938 17.273438 17.414062 18.09375 17.382812 18.929688 C 16.578125 19.671875 15.578125 20.203125 14.460938 20.4375 C 14.84375 20.789062 15.265625 21.109375 15.710938 21.382812 C 16.351562 21.148438 16.945312 20.835938 17.484375 20.453125 C 17.59375 21.109375 17.789062 21.75 18.078125 22.359375 C 18.578125 22.476562 19.085938 22.554688 19.617188 22.578125 C 19 21.625 18.671875 20.546875 18.625 19.445312 C 19.195312 18.835938 19.664062 18.132812 20 17.359375 C 20.335938 18.132812 20.804688 18.835938 21.367188 19.445312 C 21.328125 20.539062 20.992188 21.625 20.375 22.578125 C 20.90625 22.554688 21.421875 22.476562 21.921875 22.359375 C 22.210938 21.75 22.40625 21.109375 22.515625 20.453125 C 23.0625 20.835938 23.65625 21.148438 24.289062 21.382812 C 24.734375 21.109375 25.15625 20.789062 25.539062 20.4375 C 24.421875 20.203125 23.421875 19.671875 22.617188 18.929688 C 22.585938 18.101562 22.421875 17.273438 22.109375 16.484375 C 22.898438 16.796875 23.726562 16.960938 24.554688 16.992188 C 25.296875 17.796875 25.828125 18.796875 26.070312 19.90625 C 26.421875 19.523438 26.734375 19.109375 27.007812 18.664062 C 26.773438 18.03125 26.460938 17.4375 26.078125 16.890625 C 26.734375 16.78125 27.375 16.585938 27.984375 16.296875 C 28.101562 15.796875 28.179688 15.28125 28.203125 14.75 C 27.25 15.367188 26.164062 15.703125 25.070312 15.742188 C 24.460938 15.179688 23.757812 14.710938 22.984375 14.375 C 23.757812 14.039062 24.460938 13.570312 25.070312 13 C 26.164062 13.046875 27.25 13.375 28.203125 13.992188 C 28.179688 13.460938 28.101562 12.953125 27.984375 12.453125 C 27.375 12.164062 26.726562 11.96875 26.070312 11.859375 C 26.453125 11.3125 26.773438 10.71875 27.007812 10.085938 C 26.734375 9.640625 26.414062 9.21875 26.0625 8.835938 C 25.828125 9.953125 25.296875 10.953125 24.554688 11.757812 C 23.71875 11.789062 22.898438 11.960938 22.109375 12.265625 C 22.414062 11.476562 22.585938 10.648438 22.617188 9.820312 C 23.421875 9.078125 24.421875 8.539062 25.539062 8.304688 C 25.148438 7.953125 24.734375 7.644531 24.289062 7.371094 C 23.65625 7.601562 23.0625 7.914062 22.515625 8.296875 C 22.40625 7.644531 22.210938 7.003906 21.921875 6.390625 C 21.421875 6.269531 20.90625 6.195312 20.375 6.171875 C 21 7.125 21.328125 8.210938 21.375 9.304688 C 20.804688 9.914062 20.335938 10.617188 20 11.390625 C 19.664062 10.617188 19.195312 9.914062 18.625 9.304688 C 18.671875 8.210938 19 7.125 19.625 6.171875 Z M 20 12.5 C 21.03125 12.5 21.875 13.34375 21.875 14.375 C 21.875 15.40625 21.03125 16.25 20 16.25 C 18.96875 16.25 18.125 15.40625 18.125 14.375 C 18.125 13.34375 18.96875 12.5 20 12.5 Z M 8.125 13.75 C 8.820312 13.75 9.375 14.304688 9.375 15 C 9.375 15.695312 8.820312 16.25 8.125 16.25 C 7.425781 16.25 6.875 15.695312 6.875 15 C 6.875 14.304688 7.425781 13.75 8.125 13.75 Z M 20 13.75 C 19.648438 13.75 19.375 14.023438 19.375 14.375 C 19.375 14.726562 19.648438 15 20 15 C 20.351562 15 20.625 14.726562 20.625 14.375 C 20.625 14.023438 20.351562 13.75 20 13.75 Z M 31.875 13.75 C 32.570312 13.75 33.125 14.304688 33.125 15 C 33.125 15.695312 32.570312 16.25 31.875 16.25 C 31.179688 16.25 30.625 15.695312 30.625 15 C 30.625 14.304688 31.179688 13.75 31.875 13.75 Z M 6.859375 20.132812 C 6.066406 20.59375 5.402344 21.328125 5.386719 21.921875 C 5.230469 25.265625 5.332031 29.015625 6.066406 33.320312 L 7.195312 33.757812 C 6.898438 29.195312 6.90625 24.671875 6.859375 20.132812 Z M 33.75 20.9375 C 33.703125 24.945312 33.710938 28.945312 33.414062 32.976562 L 34.539062 32.585938 C 35.132812 30.109375 35.289062 27.320312 35.265625 24.523438 L 34.125 24.5 L 35.25 23.84375 C 35.25 23.398438 35.242188 22.953125 35.21875 22.515625 C 35.203125 21.992188 34.539062 21.34375 33.75 20.9375 Z M 20 26.875 C 20.351562 26.875 20.625 27.148438 20.625 27.5 C 20.625 27.851562 20.351562 28.125 20 28.125 C 19.648438 28.125 19.375 27.851562 19.375 27.5 C 19.375 27.148438 19.648438 26.875 20 26.875 Z M 19.671875 29.34375 C 19.78125 29.367188 19.890625 29.375 20 29.375 C 20.101562 29.375 20.195312 29.367188 20.289062 29.351562 L 20.109375 36.429688 Z M 19.671875 29.34375 "/>
</g>
</svg>
