<svg width="40" height="40" viewBox="0 0 40 40" fill="none" xmlns="http://www.w3.org/2000/svg">
<path d="M19.375 1.25V3.76875C14.2969 4.06484 10.1719 7.9375 9.47655 12.8984C9.08592 12.6484 8.62498 12.5 8.12498 12.5C6.75155 12.5 5.62498 13.625 5.62498 15C5.62498 16.1562 6.42264 17.1406 7.49373 17.4219L7.74061 19.7812C7.72108 24.7656 7.9453 30.3828 7.55467 35.5859C7.33592 35.0156 7.31717 34.6406 7.20155 33.9531L6.24686 34.125C6.41873 35.1953 6.63592 36.2344 7.27186 37.1641C9.14061 36.4375 9.6328 32.4062 10.1328 29.8281L8.49998 28.9219L10.3984 28.375C10.5781 27.2578 10.6953 26.5547 10.7578 25.8437L9.23436 24.6562L10.8125 24.6719C10.8125 24.3672 10.8125 24.0391 10.8047 23.6641C10.7734 22.6484 9.8828 20.3828 8.98436 19.8984L8.72655 17.4219C9.08592 17.3359 9.40623 17.1719 9.68748 16.9453C10.7969 21.375 14.6797 24.7109 19.375 24.9844V25.7344C18.6484 25.9922 18.125 26.6875 18.125 27.5C18.125 28.4062 18.7734 29.1641 19.6328 29.3359C18.6562 29.6172 17.664 30.8359 17.7734 31.3828C18.4219 34.6328 18.9375 38.3047 20.1797 38.6562C21.7109 37.1172 21.8672 34.0234 22.1719 31.0703C22.2109 30.6953 21.2656 29.6016 20.375 29.3359C21.2265 29.1562 21.875 28.3984 21.875 27.5C21.875 26.6875 21.3515 25.9922 20.625 25.7344V24.9844C25.3203 24.7109 29.2031 21.375 30.3125 16.9453C30.6172 17.1875 30.9765 17.3672 31.3672 17.4453L31.625 20.7344C30.7187 21.1562 29.9297 22.3437 29.8984 23.2422C29.8515 24.9766 29.9687 26.8672 30.3125 28.7266L32.125 29.5234L30.4687 29.5C30.5 29.6484 30.5312 29.7891 30.5703 29.9375L31.164 30.5781L30.7656 30.6875C31.3203 32.6641 32.1562 34.5156 33.3359 35.9844C33.7656 35.1641 34.1015 34.2578 34.3594 33.2969L33.4062 33.1484C33.3594 33.7578 33.3047 34.3672 33.2422 34.9687C32.8515 30.3984 32.8828 25.0312 32.8672 20.625L32.6094 17.3906C33.6328 17.0703 34.375 16.1172 34.375 15C34.375 13.625 33.25 12.5 31.875 12.5C31.375 12.5 30.914 12.6484 30.5234 12.8984C29.8281 7.9375 25.7031 4.06484 20.625 3.76875V1.25H19.375ZM20 5C25.1875 5 29.375 9.1875 29.375 14.375C29.375 19.5625 25.1875 23.75 20 23.75C14.8125 23.75 10.625 19.5625 10.625 14.375C10.625 9.1875 14.8125 5 20 5ZM19.625 6.17266C19.0937 6.19687 18.5781 6.27031 18.0781 6.38984C17.789 7.00234 17.5937 7.64531 17.4844 8.29687C16.9375 7.91406 16.3437 7.60078 15.7109 7.36953C15.2656 7.64297 14.8515 7.96094 14.4609 8.30469C15.5781 8.54687 16.5781 9.07812 17.3828 9.82031C17.414 10.6484 17.5859 11.4766 17.8906 12.2656C17.1015 11.9609 16.2734 11.7891 15.4453 11.7578C14.7031 10.9531 14.1719 9.95312 13.9297 8.84375C13.5781 9.22656 13.2656 9.64062 12.9922 10.0859C13.2265 10.7187 13.5469 11.3125 13.9297 11.8594C13.2734 11.9687 12.625 12.1641 12.0156 12.4531C11.8984 12.9531 11.8203 13.4687 11.7969 14C12.75 13.3828 13.8359 13.0469 14.9297 13.0078C15.539 13.5703 16.2422 14.0391 17.0156 14.375C16.2422 14.7109 15.539 15.1797 14.9297 15.75C13.8359 15.7031 12.75 15.375 11.7969 14.7578C11.8203 15.2891 11.8984 15.7969 12.0156 16.2969C12.625 16.5859 13.2734 16.7812 13.9297 16.8906C13.5469 17.4375 13.2265 18.0312 12.9922 18.6641C13.2656 19.1094 13.5781 19.5234 13.9297 19.9062C14.1719 18.7969 14.7031 17.7969 15.4453 16.9922C16.2734 16.9609 17.1015 16.7891 17.8906 16.4844C17.5859 17.2734 17.414 18.0937 17.3828 18.9297C16.5781 19.6719 15.5781 20.2031 14.4609 20.4375C14.8437 20.7891 15.2656 21.1094 15.7109 21.3828C16.3515 21.1484 16.9453 20.8359 17.4844 20.4531C17.5937 21.1094 17.789 21.75 18.0781 22.3594C18.5781 22.4766 19.0859 22.5547 19.6172 22.5781C19 21.625 18.6719 20.5469 18.625 19.4453C19.1953 18.8359 19.664 18.1328 20 17.3594C20.3359 18.1328 20.8047 18.8359 21.3672 19.4453C21.3281 20.5391 20.9922 21.625 20.375 22.5781C20.9062 22.5547 21.4219 22.4766 21.9219 22.3594C22.2109 21.75 22.4062 21.1094 22.5156 20.4531C23.0625 20.8359 23.6562 21.1484 24.289 21.3828C24.7344 21.1094 25.1562 20.7891 25.539 20.4375C24.4219 20.2031 23.4219 19.6719 22.6172 18.9297C22.5859 18.1016 22.4219 17.2734 22.1094 16.4844C22.8984 16.7969 23.7265 16.9609 24.5547 16.9922C25.2969 17.7969 25.8281 18.7969 26.0703 19.9062C26.4219 19.5234 26.7344 19.1094 27.0078 18.6641C26.7734 18.0312 26.4609 17.4375 26.0781 16.8906C26.7344 16.7812 27.375 16.5859 27.9844 16.2969C28.1015 15.7969 28.1797 15.2812 28.2031 14.75C27.25 15.3672 26.164 15.7031 25.0703 15.7422C24.4609 15.1797 23.7578 14.7109 22.9844 14.375C23.7578 14.0391 24.4609 13.5703 25.0703 13C26.164 13.0469 27.25 13.375 28.2031 13.9922C28.1797 13.4609 28.1015 12.9531 27.9844 12.4531C27.375 12.1641 26.7265 11.9687 26.0703 11.8594C26.4531 11.3125 26.7734 10.7187 27.0078 10.0859C26.7344 9.64062 26.414 9.21875 26.0625 8.83594C25.8281 9.95312 25.2969 10.9531 24.5547 11.7578C23.7187 11.7891 22.8984 11.9609 22.1094 12.2656C22.414 11.4766 22.5859 10.6484 22.6172 9.82031C23.4219 9.07812 24.4219 8.53906 25.539 8.30469C25.1484 7.95312 24.7344 7.64297 24.289 7.36953C23.6562 7.60078 23.0625 7.91406 22.5156 8.29687C22.4062 7.64531 22.2109 7.00234 21.9219 6.38984C21.4219 6.27031 20.9062 6.19687 20.375 6.17266C21 7.12578 21.3281 8.21094 21.375 9.30469C20.8047 9.91406 20.3359 10.6172 20 11.3906C19.664 10.6172 19.1953 9.91406 18.625 9.30469C18.6719 8.21094 19 7.12578 19.625 6.17266ZM20 12.5C21.0312 12.5 21.875 13.3437 21.875 14.375C21.875 15.4062 21.0312 16.25 20 16.25C18.9687 16.25 18.125 15.4062 18.125 14.375C18.125 13.3437 18.9687 12.5 20 12.5ZM8.12498 13.75C8.8203 13.75 9.37498 14.3047 9.37498 15C9.37498 15.6953 8.8203 16.25 8.12498 16.25C7.42733 16.25 6.87498 15.6953 6.87498 15C6.87498 14.3047 7.42733 13.75 8.12498 13.75ZM20 13.75C19.6484 13.75 19.375 14.0234 19.375 14.375C19.375 14.7266 19.6484 15 20 15C20.3515 15 20.625 14.7266 20.625 14.375C20.625 14.0234 20.3515 13.75 20 13.75ZM31.875 13.75C32.5703 13.75 33.125 14.3047 33.125 15C33.125 15.6953 32.5703 16.25 31.875 16.25C31.1797 16.25 30.625 15.6953 30.625 15C30.625 14.3047 31.1797 13.75 31.875 13.75ZM6.8578 20.1328C6.06717 20.5937 5.40311 21.3281 5.38748 21.9219C5.23123 25.2656 5.3328 29.0156 6.06717 33.3203L7.19373 33.7578C6.89686 29.1953 6.90467 24.6719 6.8578 20.1328ZM33.75 20.9375C33.7031 24.9453 33.7109 28.9453 33.414 32.9766L34.539 32.5859C35.1328 30.1094 35.289 27.3203 35.2656 24.5234L34.125 24.5L35.25 23.8437C35.25 23.3984 35.2422 22.9531 35.2187 22.5156C35.2031 21.9922 34.539 21.3437 33.75 20.9375ZM20 26.875C20.3515 26.875 20.625 27.1484 20.625 27.5C20.625 27.8516 20.3515 28.125 20 28.125C19.6484 28.125 19.375 27.8516 19.375 27.5C19.375 27.1484 19.6484 26.875 20 26.875ZM19.6719 29.3437C19.7812 29.3672 19.8906 29.375 20 29.375C20.1015 29.375 20.1953 29.3672 20.289 29.3516L20.1094 36.4297L19.6719 29.3437Z" fill="white"/>
</svg>
