<svg width="145" height="32" viewBox="0 0 145 32" fill="none" xmlns="http://www.w3.org/2000/svg">
<g clip-path="url(#clip0_251_205)">
<path d="M144.481 14.9456V12.4047H141.325V8.45446L141.219 8.48713L138.255 9.39385L138.197 9.41167V12.4047H133.519V10.7375C133.519 9.96112 133.693 9.36694 134.035 8.97071C134.375 8.5792 134.861 8.38021 135.48 8.38021C135.926 8.38021 136.387 8.48521 136.852 8.69223L136.968 8.74412V6.06816L136.913 6.04807C136.48 5.89241 135.891 5.81396 135.161 5.81396C134.241 5.81396 133.404 6.01418 132.675 6.41111C131.945 6.80856 131.371 7.376 130.969 8.09754C130.568 8.8182 130.365 9.65049 130.365 10.5715V12.4047H128.168V14.9456H130.365V25.65H133.519V14.9456H138.197V21.7481C138.197 24.5497 139.518 25.9695 142.124 25.9695C142.553 25.9695 143.003 25.9192 143.464 25.8209C143.932 25.72 144.251 25.6192 144.439 25.5116L144.481 25.4872V22.9227L144.352 23.0076C144.181 23.1218 143.968 23.2149 143.718 23.2841C143.467 23.3547 143.257 23.3902 143.095 23.3902C142.484 23.3902 142.033 23.2256 141.752 22.901C141.469 22.5734 141.325 22.0004 141.325 21.199V14.9456H144.481ZM121.124 23.3904C119.979 23.3904 119.077 23.0108 118.441 22.2631C117.801 21.5115 117.477 20.44 117.477 19.0787C117.477 17.6742 117.801 16.575 118.441 15.8101C119.078 15.0503 119.972 14.6648 121.099 14.6648C122.192 14.6648 123.063 15.0331 123.686 15.76C124.313 16.4906 124.631 17.5811 124.631 19.002C124.631 20.4404 124.332 21.5452 123.742 22.2842C123.157 23.0178 122.276 23.3904 121.124 23.3904ZM121.265 12.0856C119.081 12.0856 117.346 12.7255 116.109 13.9878C114.873 15.2502 114.246 16.9971 114.246 19.1806C114.246 21.2543 114.858 22.9224 116.065 24.1376C117.271 25.3534 118.914 25.9692 120.945 25.9692C123.062 25.9692 124.763 25.3204 125.999 24.0407C127.235 22.7622 127.862 21.0319 127.862 18.8995C127.862 16.7932 127.274 15.1127 126.114 13.9055C124.954 12.6978 123.322 12.0856 121.265 12.0856ZM109.161 12.0855C107.675 12.0855 106.446 12.4655 105.507 13.2148C104.563 13.9685 104.084 14.9572 104.084 16.1534C104.084 16.7751 104.187 17.3276 104.391 17.7959C104.596 18.2661 104.912 18.6798 105.333 19.0271C105.751 19.3716 106.396 19.7326 107.251 20.0996C107.969 20.3952 108.505 20.6454 108.845 20.8425C109.178 21.0355 109.414 21.2298 109.547 21.4188C109.676 21.6038 109.742 21.857 109.742 22.1697C109.742 23.0595 109.076 23.4924 107.705 23.4924C107.196 23.4924 106.616 23.3863 105.98 23.1769C105.345 22.9677 104.75 22.6671 104.215 22.2815L104.084 22.1877V25.2242L104.132 25.2466C104.578 25.4526 105.141 25.6262 105.804 25.763C106.466 25.8998 107.067 25.9695 107.59 25.9695C109.202 25.9695 110.5 25.5876 111.447 24.8339C112.401 24.075 112.884 23.0631 112.884 21.8253C112.884 20.9326 112.624 20.1669 112.111 19.5495C111.602 18.9369 110.718 18.3747 109.486 17.8777C108.504 17.4836 107.875 17.1563 107.615 16.9053C107.365 16.6626 107.238 16.3195 107.238 15.885C107.238 15.4998 107.395 15.1913 107.717 14.9413C108.041 14.69 108.493 14.5623 109.059 14.5623C109.584 14.5623 110.122 14.6453 110.657 14.808C111.191 14.9706 111.66 15.1885 112.052 15.4551L112.181 15.5431V12.6626L112.132 12.6413C111.77 12.4863 111.294 12.3537 110.715 12.2461C110.138 12.1395 109.615 12.0855 109.161 12.0855ZM95.8612 23.3904C94.7167 23.3904 93.8138 23.0108 93.1779 22.2631C92.5377 21.5115 92.214 20.4404 92.214 19.0787C92.214 17.6742 92.5381 16.575 93.1786 15.8101C93.8145 15.0503 94.7083 14.6648 95.8358 14.6648C96.9291 14.6648 97.7997 15.0331 98.4234 15.76C99.0502 16.4906 99.3682 17.5811 99.3682 19.002C99.3682 20.4404 99.0689 21.5452 98.4791 22.2842C97.8935 23.0178 97.0132 23.3904 95.8612 23.3904ZM96.002 12.0856C93.8173 12.0856 92.0825 12.7255 90.8462 13.9878C89.6102 15.2502 88.983 16.9971 88.983 19.1806C88.983 21.2552 89.5952 22.9224 90.8019 24.1376C92.0086 25.3534 93.6506 25.9692 95.6824 25.9692C97.7992 25.9692 99.4999 25.3204 100.736 24.0407C101.972 22.7622 102.599 21.0319 102.599 18.8995C102.599 16.7932 102.011 15.1127 100.851 13.9055C99.6905 12.6978 98.0589 12.0856 96.002 12.0856ZM84.1951 14.6984V12.4047H81.0795V25.6496H84.1951V18.8744C84.1951 17.7222 84.4563 16.7758 84.9717 16.0609C85.4806 15.3546 86.1588 14.9966 86.9868 14.9966C87.2673 14.9966 87.5823 15.0429 87.9235 15.1345C88.2612 15.2255 88.5058 15.3242 88.6501 15.4282L88.781 15.523V12.382L88.7305 12.3603C88.4403 12.237 88.0299 12.1748 87.5105 12.1748C86.7277 12.1748 86.0269 12.4264 85.4268 12.9217C84.9001 13.357 84.5192 13.954 84.2282 14.6984H84.1951ZM75.5 12.0855C74.0707 12.0855 72.7957 12.3921 71.7112 12.9963C70.6245 13.6018 69.7842 14.4664 69.2123 15.5658C68.6432 16.6626 68.3542 17.9437 68.3542 19.3723C68.3542 20.6237 68.6344 21.7722 69.1882 22.7843C69.7424 23.7981 70.5268 24.5913 71.5197 25.1414C72.5111 25.6909 73.657 25.9695 74.9257 25.9695C76.4064 25.9695 77.6705 25.6734 78.6842 25.0897L78.725 25.0661V22.2118L78.5942 22.3074C78.1351 22.6417 77.622 22.9087 77.0699 23.101C76.5192 23.2932 76.0171 23.3904 75.577 23.3904C74.3544 23.3904 73.3731 23.0077 72.6607 22.2537C71.9467 21.4985 71.5847 20.4382 71.5847 19.1038C71.5847 17.761 71.9622 16.6735 72.7063 15.8709C73.4479 15.0707 74.4311 14.6649 75.6284 14.6649C76.6525 14.6649 77.6504 15.0117 78.5945 15.6965L78.725 15.7914V12.7838L78.6829 12.7601C78.3276 12.5613 77.8431 12.397 77.2414 12.2725C76.6426 12.1483 76.0568 12.0855 75.5 12.0855ZM66.2084 12.4048H63.0927V25.6497H66.2084V12.4048ZM64.6823 6.7623C64.1695 6.7623 63.7223 6.93683 63.3549 7.28275C62.9859 7.62971 62.7986 8.06647 62.7986 8.58185C62.7986 9.0892 62.9837 9.51792 63.349 9.85563C63.712 10.1923 64.1606 10.363 64.6823 10.363C65.2038 10.363 65.6542 10.1923 66.0216 9.85615C66.3915 9.51792 66.5789 9.0892 66.5789 8.58185C66.5789 8.08447 66.3965 7.65207 66.0368 7.29672C65.6776 6.94207 65.2218 6.7623 64.6823 6.7623ZM56.9086 11.4276V25.6496H60.0883V7.16789H55.6876L50.0939 20.8955L44.6657 7.16789H40.0858V25.6496H43.0737V11.4262H43.1765L48.9085 25.6496H51.1635L56.8061 11.4276H56.9086Z" fill="#C2C2C2"/>
<path d="M14.6567 15.6484H0V0.991699H14.6567V15.6484Z" fill="#C2C2C2"/>
<path d="M30.8395 15.6484H16.183V0.991699H30.8395V15.6484Z" fill="#C2C2C2"/>
<path d="M14.6564 31.8369H0V17.1802H14.6564V31.8369Z" fill="#C2C2C2"/>
<path d="M30.8395 31.8369H16.183V17.1802H30.8395V31.8369Z" fill="#C2C2C2"/>
</g>
<defs>
<clipPath id="clip0_251_205">
<rect width="144.516" height="32" fill="white"/>
</clipPath>
</defs>
</svg>
