<?xml version="1.0" encoding="UTF-8"?>
<svg xmlns="http://www.w3.org/2000/svg" xmlns:xlink="http://www.w3.org/1999/xlink" width="150px" height="150px" viewBox="0 0 150 150" version="1.1">
<defs>
<clipPath id="clip1">
  <path d="M 0 59 L 149.5 59 L 149.5 91.550781 L 0 91.550781 Z M 0 59 "/>
</clipPath>
</defs>
<g id="surface1">
<g clip-path="url(#clip1)" clip-rule="nonzero">
<path style=" stroke:none;fill-rule:nonzero;fill:rgb(25.098039%,23.921569%,23.921569%);fill-opacity:1;" d="M 149.464844 73.910156 L 149.464844 71.28125 L 146.199219 71.28125 L 146.199219 67.195312 L 146.089844 67.226562 L 143.023438 68.167969 L 142.960938 68.183594 L 142.960938 71.28125 L 138.125 71.28125 L 138.125 69.554688 C 138.125 68.753906 138.304688 68.136719 138.65625 67.726562 C 139.007812 67.324219 139.511719 67.117188 140.152344 67.117188 C 140.613281 67.117188 141.089844 67.226562 141.570312 67.441406 L 141.691406 67.492188 L 141.691406 64.726562 L 141.632812 64.703125 C 141.1875 64.542969 140.578125 64.460938 139.820312 64.460938 C 138.871094 64.460938 138.003906 64.667969 137.25 65.082031 C 136.496094 65.492188 135.902344 66.078125 135.484375 66.824219 C 135.070312 67.570312 134.859375 68.429688 134.859375 69.382812 L 134.859375 71.28125 L 132.585938 71.28125 L 132.585938 73.910156 L 134.859375 73.910156 L 134.859375 84.984375 L 138.125 84.984375 L 138.125 73.910156 L 142.960938 73.910156 L 142.960938 80.945312 C 142.960938 83.84375 144.328125 85.3125 147.023438 85.3125 C 147.46875 85.3125 147.933594 85.261719 148.410156 85.160156 C 148.894531 85.054688 149.226562 84.949219 149.417969 84.839844 L 149.464844 84.8125 L 149.464844 82.160156 L 149.328125 82.25 C 149.152344 82.367188 148.933594 82.464844 148.671875 82.535156 C 148.414062 82.609375 148.195312 82.644531 148.03125 82.644531 C 147.398438 82.644531 146.929688 82.476562 146.640625 82.140625 C 146.347656 81.800781 146.199219 81.207031 146.199219 80.378906 L 146.199219 73.910156 Z M 125.300781 82.644531 C 124.117188 82.644531 123.183594 82.253906 122.523438 81.480469 C 121.863281 80.703125 121.527344 79.59375 121.527344 78.183594 C 121.527344 76.730469 121.863281 75.59375 122.523438 74.804688 C 123.183594 74.015625 124.109375 73.617188 125.273438 73.617188 C 126.40625 73.617188 127.304688 74 127.949219 74.75 C 128.601562 75.507812 128.929688 76.636719 128.929688 78.105469 C 128.929688 79.59375 128.621094 80.738281 128.007812 81.5 C 127.402344 82.261719 126.492188 82.644531 125.300781 82.644531 Z M 125.445312 70.949219 C 123.1875 70.949219 121.390625 71.613281 120.113281 72.917969 C 118.835938 74.222656 118.183594 76.03125 118.183594 78.289062 C 118.183594 80.433594 118.820312 82.160156 120.066406 83.417969 C 121.316406 84.675781 123.015625 85.3125 125.117188 85.3125 C 127.304688 85.3125 129.066406 84.640625 130.34375 83.316406 C 131.621094 81.996094 132.269531 80.207031 132.269531 78 C 132.269531 75.820312 131.664062 74.082031 130.460938 72.832031 C 129.261719 71.582031 127.574219 70.949219 125.445312 70.949219 Z M 112.925781 70.949219 C 111.386719 70.949219 110.117188 71.34375 109.144531 72.117188 C 108.167969 72.898438 107.671875 73.921875 107.671875 75.160156 C 107.671875 75.800781 107.78125 76.375 107.992188 76.859375 C 108.203125 77.34375 108.53125 77.773438 108.964844 78.132812 C 109.398438 78.488281 110.066406 78.859375 110.949219 79.242188 C 111.691406 79.546875 112.246094 79.804688 112.597656 80.007812 C 112.941406 80.210938 113.1875 80.410156 113.324219 80.605469 C 113.457031 80.796875 113.527344 81.058594 113.527344 81.382812 C 113.527344 82.304688 112.835938 82.75 111.417969 82.75 C 110.890625 82.75 110.292969 82.640625 109.632812 82.425781 C 108.976562 82.207031 108.363281 81.898438 107.808594 81.5 L 107.671875 81.402344 L 107.671875 84.542969 L 107.722656 84.566406 C 108.183594 84.777344 108.765625 84.957031 109.453125 85.101562 C 110.136719 85.242188 110.757812 85.3125 111.300781 85.3125 C 112.96875 85.3125 114.308594 84.917969 115.289062 84.136719 C 116.277344 83.351562 116.777344 82.308594 116.777344 81.027344 C 116.777344 80.101562 116.507812 79.3125 115.976562 78.671875 C 115.449219 78.039062 114.535156 77.457031 113.261719 76.941406 C 112.246094 76.535156 111.59375 76.195312 111.324219 75.9375 C 111.066406 75.683594 110.9375 75.332031 110.9375 74.882812 C 110.9375 74.484375 111.097656 74.164062 111.429688 73.90625 C 111.765625 73.644531 112.234375 73.511719 112.820312 73.511719 C 113.363281 73.511719 113.917969 73.597656 114.472656 73.765625 C 115.023438 73.933594 115.511719 74.160156 115.914062 74.4375 L 116.050781 74.527344 L 116.050781 71.546875 L 116 71.527344 C 115.625 71.363281 115.132812 71.226562 114.53125 71.117188 C 113.9375 71.007812 113.394531 70.949219 112.925781 70.949219 Z M 99.167969 82.644531 C 97.984375 82.644531 97.046875 82.253906 96.390625 81.480469 C 95.730469 80.703125 95.394531 79.59375 95.394531 78.183594 C 95.394531 76.730469 95.730469 75.59375 96.390625 74.804688 C 97.050781 74.015625 97.972656 73.617188 99.140625 73.617188 C 100.269531 73.617188 101.171875 74 101.816406 74.75 C 102.464844 75.507812 102.792969 76.636719 102.792969 78.105469 C 102.792969 79.59375 102.484375 80.738281 101.875 81.5 C 101.269531 82.261719 100.359375 82.644531 99.167969 82.644531 Z M 99.3125 70.949219 C 97.050781 70.949219 95.257812 71.613281 93.980469 72.917969 C 92.699219 74.222656 92.050781 76.03125 92.050781 78.289062 C 92.050781 80.4375 92.683594 82.160156 93.933594 83.417969 C 95.179688 84.675781 96.878906 85.3125 98.980469 85.3125 C 101.171875 85.3125 102.929688 84.640625 104.210938 83.316406 C 105.488281 81.996094 106.136719 80.207031 106.136719 78 C 106.136719 75.820312 105.527344 74.082031 104.328125 72.832031 C 103.128906 71.582031 101.441406 70.949219 99.3125 70.949219 Z M 87.097656 73.652344 L 87.097656 71.28125 L 83.875 71.28125 L 83.875 84.980469 L 87.097656 84.980469 L 87.097656 77.972656 C 87.097656 76.78125 87.367188 75.800781 87.902344 75.0625 C 88.429688 74.332031 89.128906 73.960938 89.988281 73.960938 C 90.277344 73.960938 90.601562 74.011719 90.957031 74.105469 C 91.304688 74.199219 91.558594 74.300781 91.707031 74.410156 L 91.84375 74.507812 L 91.84375 71.257812 L 91.789062 71.234375 C 91.488281 71.105469 91.066406 71.042969 90.527344 71.042969 C 89.71875 71.042969 88.992188 71.304688 88.371094 71.816406 C 87.828125 72.265625 87.433594 72.882812 87.132812 73.652344 Z M 78.101562 70.949219 C 76.625 70.949219 75.304688 71.269531 74.183594 71.894531 C 73.058594 72.519531 72.191406 73.414062 71.597656 74.550781 C 71.011719 75.683594 70.710938 77.011719 70.710938 78.488281 C 70.710938 79.78125 71 80.972656 71.574219 82.019531 C 72.148438 83.066406 72.957031 83.886719 73.984375 84.457031 C 75.011719 85.023438 76.195312 85.3125 77.507812 85.3125 C 79.042969 85.3125 80.347656 85.007812 81.398438 84.402344 L 81.441406 84.378906 L 81.441406 81.425781 L 81.304688 81.523438 C 80.828125 81.871094 80.296875 82.148438 79.726562 82.347656 C 79.15625 82.542969 78.636719 82.644531 78.183594 82.644531 C 76.917969 82.644531 75.902344 82.25 75.167969 81.46875 C 74.425781 80.6875 74.054688 79.589844 74.054688 78.210938 C 74.054688 76.820312 74.445312 75.695312 75.214844 74.867188 C 75.980469 74.039062 76.996094 73.617188 78.234375 73.617188 C 79.296875 73.617188 80.328125 73.976562 81.304688 74.6875 L 81.441406 74.785156 L 81.441406 71.671875 L 81.394531 71.648438 C 81.027344 71.441406 80.527344 71.273438 79.90625 71.144531 C 79.285156 71.015625 78.679688 70.949219 78.101562 70.949219 Z M 68.492188 71.28125 L 65.269531 71.28125 L 65.269531 84.984375 L 68.492188 84.984375 Z M 66.914062 65.445312 C 66.382812 65.445312 65.917969 65.625 65.539062 65.980469 C 65.15625 66.339844 64.964844 66.792969 64.964844 67.324219 C 64.964844 67.851562 65.15625 68.292969 65.535156 68.644531 C 65.910156 68.992188 66.371094 69.167969 66.914062 69.167969 C 67.453125 69.167969 67.917969 68.992188 68.296875 68.644531 C 68.679688 68.292969 68.875 67.851562 68.875 67.324219 C 68.875 66.8125 68.6875 66.363281 68.3125 65.996094 C 67.941406 65.628906 67.472656 65.445312 66.914062 65.445312 Z M 58.871094 70.269531 L 58.871094 84.980469 L 62.160156 84.980469 L 62.160156 65.863281 L 57.609375 65.863281 L 51.820312 80.0625 L 46.207031 65.863281 L 41.46875 65.863281 L 41.46875 84.980469 L 44.558594 84.980469 L 44.558594 70.269531 L 44.664062 70.269531 L 50.59375 84.980469 L 52.929688 84.980469 L 58.765625 70.269531 Z M 15.160156 74.636719 L 0 74.636719 L 0 59.472656 L 15.160156 59.472656 Z M 31.902344 74.636719 L 16.742188 74.636719 L 16.742188 59.472656 L 31.902344 59.472656 Z M 15.160156 91.382812 L 0 91.382812 L 0 76.222656 L 15.160156 76.222656 Z M 31.902344 91.382812 L 16.742188 91.382812 L 16.742188 76.222656 L 31.902344 76.222656 Z M 31.902344 91.382812 "/>
</g>
</g>
</svg>
