<svg width="37" height="38" viewBox="0 0 37 38" fill="none" xmlns="http://www.w3.org/2000/svg">
<path d="M23.982 0.993408L21.767 12.5008C21.4584 14.1042 23.0813 15.3921 24.5727 14.7273L35.2761 9.95626L25.5729 16.527C24.2209 17.4426 24.4577 19.5008 25.9824 20.0853L36.9245 24.2801L25.4171 22.0651C23.8137 21.7565 22.5258 23.3793 23.1906 24.8708L27.9617 35.5742L21.3909 25.871C20.4754 24.519 18.4171 24.7558 17.8326 26.2805L13.6378 37.2226L15.8528 25.7152C16.1614 24.1118 14.5386 22.8239 13.0472 23.4887L2.34375 28.2598L12.0469 21.689C13.399 20.7735 13.1621 18.7152 11.6374 18.1307L0.695312 13.9359L12.2027 16.1509C13.8061 16.4595 15.094 14.8367 14.4292 13.3453L9.65816 2.64184L16.2289 12.345C17.1445 13.6971 19.2027 13.4602 19.7872 11.9355L23.982 0.993408Z" fill="white"/>
</svg>
