<svg width="42" height="38" viewBox="0 0 42 38" fill="none" xmlns="http://www.w3.org/2000/svg">
<path d="M10.5371 0.660156L17.8257 9.8493C19.436 11.8795 22.5143 11.8899 24.1383 9.87063L31.4888 0.730964L27.175 11.6376C26.2219 14.0472 27.7521 16.7184 30.3128 17.1151L41.9032 18.911L30.301 20.6285C27.7376 21.008 26.1894 23.6687 27.1262 26.0847L31.3661 37.0202L24.0776 27.8311C22.4673 25.8009 19.389 25.7905 17.765 27.8098L10.4145 36.9494L14.7282 26.0428C15.6813 23.6332 14.1511 20.962 11.5904 20.5653L0 18.7694L11.6023 17.0519C14.1656 16.6724 15.7138 14.0117 14.7771 11.5957L10.5371 0.660156Z" fill="white"/>
</svg>
