<svg width="64" height="56" viewBox="0 0 64 56" fill="none" xmlns="http://www.w3.org/2000/svg">
<path d="M16.8041 0.799316L29.3474 16.6135C30.9577 18.6437 34.036 18.6541 35.66 16.6348L48.3099 0.905792L40.8861 19.6757C39.933 22.0853 41.4632 24.7564 44.0239 25.1532L63.9706 28.2438L44.0035 31.1996C41.4401 31.579 39.8919 34.2397 40.8287 36.6558L48.1255 55.4754L35.5822 39.6613C33.9719 37.6311 30.8935 37.6207 29.2696 39.6399L16.6197 55.3689L24.0435 36.5991C24.9965 34.1894 23.4664 31.5183 20.9056 31.1215L0.958984 28.0309L20.9261 25.0752C23.4894 24.6957 25.0376 22.035 24.1009 19.6189L16.8041 0.799316Z" fill="white"/>
</svg>
